STARTFONT 2.1
FONT -DotMatrix-Regular-R-Regular--9-9-75-75-c-80-iso10646-1
SIZE 9 75 75
FONTBOUNDINGBOX 11 9 0 -2
STARTPROPERTIES 10
FAMILY_NAME "DotMatrix"
WEIGHT_NAME "Regular"
FONT_VERSION "1.000"
COPYRIGHT "Copyright 2025 The DotMatrix Project Authors (https://github.com/Gissio/font_DotMatrix)"
FOUNDRY "Stefan Schmidt Art"
FONT_ASCENT 7
FONT_DESCENT 2
POINT_SIZE 9
X_HEIGHT 5
CAP_HEIGHT 7
ENDPROPERTIES
CHARS 651
STARTCHAR U+0000
ENCODING 0
SWIDTH 1090 0
DWIDTH 12 0
BBX 9 9 0 -2
BITMAP
AA80
8080
A280
9480
8880
9480
A280
8080
FF80
ENDCHAR
STARTCHAR U+0020
ENCODING 32
SWIDTH 1090 0
DWIDTH 12 0
BBX 0 0 0 0
BITMAP
ENDCHAR
STARTCHAR U+0021
ENCODING 33
SWIDTH 1090 0
DWIDTH 12 0
BBX 1 7 4 0
BITMAP
80
80
80
80
00
00
80
ENDCHAR
STARTCHAR U+0022
ENCODING 34
SWIDTH 1090 0
DWIDTH 12 0
BBX 5 3 2 4
BITMAP
88
88
88
ENDCHAR
STARTCHAR U+0023
ENCODING 35
SWIDTH 1090 0
DWIDTH 12 0
BBX 9 7 0 0
BITMAP
2200
2200
AA80
2200
AA80
2200
2200
ENDCHAR
STARTCHAR U+0024
ENCODING 36
SWIDTH 1090 0
DWIDTH 12 0
BBX 9 7 0 0
BITMAP
0800
2A80
8800
2A00
0880
AA00
0800
ENDCHAR
STARTCHAR U+0025
ENCODING 37
SWIDTH 1090 0
DWIDTH 12 0
BBX 9 7 0 0
BITMAP
A100
A200
0400
0800
1000
2280
4280
ENDCHAR
STARTCHAR U+0026
ENCODING 38
SWIDTH 1090 0
DWIDTH 12 0
BBX 9 7 0 0
BITMAP
5000
8800
5000
2080
8900
8200
2880
ENDCHAR
STARTCHAR U+0027
ENCODING 39
SWIDTH 1090 0
DWIDTH 12 0
BBX 2 2 4 5
BITMAP
40
80
ENDCHAR
STARTCHAR U+0028
ENCODING 40
SWIDTH 1090 0
DWIDTH 12 0
BBX 3 7 4 0
BITMAP
20
40
80
80
80
40
20
ENDCHAR
STARTCHAR U+0029
ENCODING 41
SWIDTH 1090 0
DWIDTH 12 0
BBX 3 7 2 0
BITMAP
80
40
20
20
20
40
80
ENDCHAR
STARTCHAR U+002A
ENCODING 42
SWIDTH 1090 0
DWIDTH 12 0
BBX 9 5 0 1
BITMAP
2200
1400
AA80
1400
2200
ENDCHAR
STARTCHAR U+002B
ENCODING 43
SWIDTH 1090 0
DWIDTH 12 0
BBX 9 5 0 1
BITMAP
0800
0800
AA80
0800
0800
ENDCHAR
STARTCHAR U+002C
ENCODING 44
SWIDTH 1090 0
DWIDTH 12 0
BBX 3 4 3 -2
BITMAP
A0
A0
20
40
ENDCHAR
STARTCHAR U+002D
ENCODING 45
SWIDTH 1090 0
DWIDTH 12 0
BBX 9 1 0 3
BITMAP
AA80
ENDCHAR
STARTCHAR U+002E
ENCODING 46
SWIDTH 1090 0
DWIDTH 12 0
BBX 3 2 2 0
BITMAP
A0
A0
ENDCHAR
STARTCHAR U+002F
ENCODING 47
SWIDTH 1090 0
DWIDTH 12 0
BBX 7 7 1 0
BITMAP
02
04
08
10
20
40
80
ENDCHAR
STARTCHAR U+0030
ENCODING 48
SWIDTH 1090 0
DWIDTH 12 0
BBX 9 7 0 0
BITMAP
1400
4100
8080
8080
8080
4100
1400
ENDCHAR
STARTCHAR U+0031
ENCODING 49
SWIDTH 1090 0
DWIDTH 12 0
BBX 5 7 2 0
BITMAP
20
A0
20
20
20
20
A8
ENDCHAR
STARTCHAR U+0032
ENCODING 50
SWIDTH 1090 0
DWIDTH 12 0
BBX 9 7 0 0
BITMAP
5500
8080
0080
0200
0800
2000
AA80
ENDCHAR
STARTCHAR U+0033
ENCODING 51
SWIDTH 1090 0
DWIDTH 12 0
BBX 9 7 0 0
BITMAP
AA80
0200
0800
0200
0080
8080
2A00
ENDCHAR
STARTCHAR U+0034
ENCODING 52
SWIDTH 1090 0
DWIDTH 12 0
BBX 9 7 0 0
BITMAP
0A00
1200
2200
4200
AA80
0200
0200
ENDCHAR
STARTCHAR U+0035
ENCODING 53
SWIDTH 1090 0
DWIDTH 12 0
BBX 9 7 0 0
BITMAP
AA80
8000
AA00
0080
0080
8080
5500
ENDCHAR
STARTCHAR U+0036
ENCODING 54
SWIDTH 1090 0
DWIDTH 12 0
BBX 9 7 0 0
BITMAP
0800
1000
2000
5500
8080
8080
5500
ENDCHAR
STARTCHAR U+0037
ENCODING 55
SWIDTH 1090 0
DWIDTH 12 0
BBX 9 7 0 0
BITMAP
AA80
0100
0200
0400
0800
1000
2000
ENDCHAR
STARTCHAR U+0038
ENCODING 56
SWIDTH 1090 0
DWIDTH 12 0
BBX 9 7 0 0
BITMAP
5500
8080
8080
5500
8080
8080
5500
ENDCHAR
STARTCHAR U+0039
ENCODING 57
SWIDTH 1090 0
DWIDTH 12 0
BBX 9 7 0 0
BITMAP
5500
8080
8080
5500
0200
0400
0800
ENDCHAR
STARTCHAR U+003A
ENCODING 58
SWIDTH 1090 0
DWIDTH 12 0
BBX 3 5 2 0
BITMAP
A0
A0
00
A0
A0
ENDCHAR
STARTCHAR U+003B
ENCODING 59
SWIDTH 1090 0
DWIDTH 12 0
BBX 3 7 2 -2
BITMAP
A0
A0
00
A0
A0
20
80
ENDCHAR
STARTCHAR U+003C
ENCODING 60
SWIDTH 1090 0
DWIDTH 12 0
BBX 7 7 0 0
BITMAP
02
08
20
80
20
08
02
ENDCHAR
STARTCHAR U+003D
ENCODING 61
SWIDTH 1090 0
DWIDTH 12 0
BBX 9 3 0 2
BITMAP
AA80
0000
AA80
ENDCHAR
STARTCHAR U+003E
ENCODING 62
SWIDTH 1090 0
DWIDTH 12 0
BBX 7 7 2 0
BITMAP
80
20
08
02
08
20
80
ENDCHAR
STARTCHAR U+003F
ENCODING 63
SWIDTH 1090 0
DWIDTH 12 0
BBX 9 7 0 0
BITMAP
5500
8080
0080
0200
0800
0000
0800
ENDCHAR
STARTCHAR U+0040
ENCODING 64
SWIDTH 1090 0
DWIDTH 12 0
BBX 9 7 0 0
BITMAP
2A00
4080
8A80
9080
8A80
4000
2A80
ENDCHAR
STARTCHAR U+0041
ENCODING 65
SWIDTH 1090 0
DWIDTH 12 0
BBX 9 7 0 0
BITMAP
1400
2200
4100
8080
AA80
8080
8080
ENDCHAR
STARTCHAR U+0042
ENCODING 66
SWIDTH 1090 0
DWIDTH 12 0
BBX 9 7 0 0
BITMAP
AA00
4080
4080
5500
4080
4080
AA00
ENDCHAR
STARTCHAR U+0043
ENCODING 67
SWIDTH 1090 0
DWIDTH 12 0
BBX 9 7 0 0
BITMAP
5500
8080
8000
8000
8000
8080
5500
ENDCHAR
STARTCHAR U+0044
ENCODING 68
SWIDTH 1090 0
DWIDTH 12 0
BBX 9 7 0 0
BITMAP
AA00
4100
4080
4080
4080
4100
AA00
ENDCHAR
STARTCHAR U+0045
ENCODING 69
SWIDTH 1090 0
DWIDTH 12 0
BBX 9 7 0 0
BITMAP
AA80
8000
8000
AA00
8000
8000
AA80
ENDCHAR
STARTCHAR U+0046
ENCODING 70
SWIDTH 1090 0
DWIDTH 12 0
BBX 9 7 0 0
BITMAP
AA80
8000
8000
AA00
8000
8000
8000
ENDCHAR
STARTCHAR U+0047
ENCODING 71
SWIDTH 1090 0
DWIDTH 12 0
BBX 9 7 0 0
BITMAP
5500
8080
8000
8A80
8080
8080
5500
ENDCHAR
STARTCHAR U+0048
ENCODING 72
SWIDTH 1090 0
DWIDTH 12 0
BBX 9 7 0 0
BITMAP
8080
8080
8080
AA80
8080
8080
8080
ENDCHAR
STARTCHAR U+0049
ENCODING 73
SWIDTH 1090 0
DWIDTH 12 0
BBX 5 7 2 0
BITMAP
A8
20
20
20
20
20
A8
ENDCHAR
STARTCHAR U+004A
ENCODING 74
SWIDTH 1090 0
DWIDTH 12 0
BBX 8 7 0 0
BITMAP
15
02
02
02
82
82
54
ENDCHAR
STARTCHAR U+004B
ENCODING 75
SWIDTH 1090 0
DWIDTH 12 0
BBX 9 7 0 0
BITMAP
8080
8200
8800
A000
8800
8200
8080
ENDCHAR
STARTCHAR U+004C
ENCODING 76
SWIDTH 1090 0
DWIDTH 12 0
BBX 9 7 0 0
BITMAP
8000
8000
8000
8000
8000
8000
AA80
ENDCHAR
STARTCHAR U+004D
ENCODING 77
SWIDTH 1090 0
DWIDTH 12 0
BBX 9 7 0 0
BITMAP
8080
A280
9480
8880
8080
8080
8080
ENDCHAR
STARTCHAR U+004E
ENCODING 78
SWIDTH 1090 0
DWIDTH 12 0
BBX 9 7 0 0
BITMAP
8080
A080
9080
8880
8480
8280
8080
ENDCHAR
STARTCHAR U+004F
ENCODING 79
SWIDTH 1090 0
DWIDTH 12 0
BBX 9 7 0 0
BITMAP
5500
8080
8080
8080
8080
8080
5500
ENDCHAR
STARTCHAR U+0050
ENCODING 80
SWIDTH 1090 0
DWIDTH 12 0
BBX 9 7 0 0
BITMAP
AA00
8080
8080
AA00
8000
8000
8000
ENDCHAR
STARTCHAR U+0051
ENCODING 81
SWIDTH 1090 0
DWIDTH 12 0
BBX 9 7 0 0
BITMAP
5500
8080
8080
8080
8880
8200
5480
ENDCHAR
STARTCHAR U+0052
ENCODING 82
SWIDTH 1090 0
DWIDTH 12 0
BBX 9 7 0 0
BITMAP
AA00
8080
8080
AA00
8200
8100
8080
ENDCHAR
STARTCHAR U+0053
ENCODING 83
SWIDTH 1090 0
DWIDTH 12 0
BBX 9 7 0 0
BITMAP
5500
8080
8000
5500
0080
8080
5500
ENDCHAR
STARTCHAR U+0054
ENCODING 84
SWIDTH 1090 0
DWIDTH 12 0
BBX 9 7 0 0
BITMAP
AA80
0800
0800
0800
0800
0800
0800
ENDCHAR
STARTCHAR U+0055
ENCODING 85
SWIDTH 1090 0
DWIDTH 12 0
BBX 9 7 0 0
BITMAP
8080
8080
8080
8080
8080
8080
5500
ENDCHAR
STARTCHAR U+0056
ENCODING 86
SWIDTH 1090 0
DWIDTH 12 0
BBX 9 7 0 0
BITMAP
8080
8080
8080
4100
2200
1400
0800
ENDCHAR
STARTCHAR U+0057
ENCODING 87
SWIDTH 1090 0
DWIDTH 12 0
BBX 9 7 0 0
BITMAP
8080
8080
8880
8880
9480
A280
4100
ENDCHAR
STARTCHAR U+0058
ENCODING 88
SWIDTH 1090 0
DWIDTH 12 0
BBX 7 7 1 0
BITMAP
82
44
28
10
28
44
82
ENDCHAR
STARTCHAR U+0059
ENCODING 89
SWIDTH 1090 0
DWIDTH 12 0
BBX 9 7 0 0
BITMAP
8080
4100
2200
1400
0800
0800
0800
ENDCHAR
STARTCHAR U+005A
ENCODING 90
SWIDTH 1090 0
DWIDTH 12 0
BBX 7 7 1 0
BITMAP
AA
04
08
10
20
40
AA
ENDCHAR
STARTCHAR U+005B
ENCODING 91
SWIDTH 1090 0
DWIDTH 12 0
BBX 5 7 2 0
BITMAP
A8
80
80
80
80
80
A8
ENDCHAR
STARTCHAR U+005C
ENCODING 92
SWIDTH 1090 0
DWIDTH 12 0
BBX 7 7 1 0
BITMAP
80
40
20
10
08
04
02
ENDCHAR
STARTCHAR U+005D
ENCODING 93
SWIDTH 1090 0
DWIDTH 12 0
BBX 5 7 2 0
BITMAP
A8
08
08
08
08
08
A8
ENDCHAR
STARTCHAR U+005E
ENCODING 94
SWIDTH 1090 0
DWIDTH 12 0
BBX 9 3 0 4
BITMAP
0800
2200
8080
ENDCHAR
STARTCHAR U+005F
ENCODING 95
SWIDTH 1090 0
DWIDTH 12 0
BBX 11 1 0 -2
BITMAP
AAA0
ENDCHAR
STARTCHAR U+0060
ENCODING 96
SWIDTH 1090 0
DWIDTH 12 0
BBX 2 2 3 5
BITMAP
80
40
ENDCHAR
STARTCHAR U+0061
ENCODING 97
SWIDTH 1090 0
DWIDTH 12 0
BBX 9 5 0 0
BITMAP
2A00
0100
5500
8100
5480
ENDCHAR
STARTCHAR U+0062
ENCODING 98
SWIDTH 1090 0
DWIDTH 12 0
BBX 8 7 0 0
BITMAP
80
80
AA
81
81
81
AA
ENDCHAR
STARTCHAR U+0063
ENCODING 99
SWIDTH 1090 0
DWIDTH 12 0
BBX 8 5 0 0
BITMAP
55
80
80
80
55
ENDCHAR
STARTCHAR U+0064
ENCODING 100
SWIDTH 1090 0
DWIDTH 12 0
BBX 8 7 0 0
BITMAP
01
01
55
81
81
81
55
ENDCHAR
STARTCHAR U+0065
ENCODING 101
SWIDTH 1090 0
DWIDTH 12 0
BBX 9 5 0 0
BITMAP
5500
8080
AA80
8000
5500
ENDCHAR
STARTCHAR U+0066
ENCODING 102
SWIDTH 1090 0
DWIDTH 12 0
BBX 7 7 0 0
BITMAP
0A
10
10
AA
10
10
10
ENDCHAR
STARTCHAR U+0067
ENCODING 103
SWIDTH 1090 0
DWIDTH 12 0
BBX 8 7 0 -2
BITMAP
55
81
81
81
55
01
2A
ENDCHAR
STARTCHAR U+0068
ENCODING 104
SWIDTH 1090 0
DWIDTH 12 0
BBX 8 7 0 0
BITMAP
80
80
AA
81
81
81
81
ENDCHAR
STARTCHAR U+0069
ENCODING 105
SWIDTH 1090 0
DWIDTH 12 0
BBX 5 7 1 0
BITMAP
20
00
A0
20
20
20
A8
ENDCHAR
STARTCHAR U+006A
ENCODING 106
SWIDTH 1090 0
DWIDTH 12 0
BBX 6 8 1 -1
BITMAP
04
00
14
04
04
04
04
A8
ENDCHAR
STARTCHAR U+006B
ENCODING 107
SWIDTH 1090 0
DWIDTH 12 0
BBX 7 7 1 0
BITMAP
80
80
82
88
A0
88
82
ENDCHAR
STARTCHAR U+006C
ENCODING 108
SWIDTH 1090 0
DWIDTH 12 0
BBX 5 7 1 0
BITMAP
A0
20
20
20
20
20
A8
ENDCHAR
STARTCHAR U+006D
ENCODING 109
SWIDTH 1090 0
DWIDTH 12 0
BBX 9 5 0 0
BITMAP
5500
8880
8880
8880
8880
ENDCHAR
STARTCHAR U+006E
ENCODING 110
SWIDTH 1090 0
DWIDTH 12 0
BBX 8 5 0 0
BITMAP
AA
81
81
81
81
ENDCHAR
STARTCHAR U+006F
ENCODING 111
SWIDTH 1090 0
DWIDTH 12 0
BBX 9 5 0 0
BITMAP
5500
8080
8080
8080
5500
ENDCHAR
STARTCHAR U+0070
ENCODING 112
SWIDTH 1090 0
DWIDTH 12 0
BBX 8 7 0 -2
BITMAP
AA
81
81
81
AA
80
80
ENDCHAR
STARTCHAR U+0071
ENCODING 113
SWIDTH 1090 0
DWIDTH 12 0
BBX 8 7 1 -2
BITMAP
55
81
81
81
55
01
01
ENDCHAR
STARTCHAR U+0072
ENCODING 114
SWIDTH 1090 0
DWIDTH 12 0
BBX 8 5 0 0
BITMAP
95
A0
80
80
80
ENDCHAR
STARTCHAR U+0073
ENCODING 115
SWIDTH 1090 0
DWIDTH 12 0
BBX 9 5 0 0
BITMAP
5500
8000
5500
0080
5500
ENDCHAR
STARTCHAR U+0074
ENCODING 116
SWIDTH 1090 0
DWIDTH 12 0
BBX 8 7 0 0
BITMAP
20
20
AA
20
20
20
15
ENDCHAR
STARTCHAR U+0075
ENCODING 117
SWIDTH 1090 0
DWIDTH 12 0
BBX 9 5 0 0
BITMAP
8100
8100
8100
8100
5480
ENDCHAR
STARTCHAR U+0076
ENCODING 118
SWIDTH 1090 0
DWIDTH 12 0
BBX 9 5 0 0
BITMAP
8080
4100
2200
1400
0800
ENDCHAR
STARTCHAR U+0077
ENCODING 119
SWIDTH 1090 0
DWIDTH 12 0
BBX 9 5 0 0
BITMAP
8080
8880
9480
A280
4100
ENDCHAR
STARTCHAR U+0078
ENCODING 120
SWIDTH 1090 0
DWIDTH 12 0
BBX 7 5 0 0
BITMAP
82
44
10
44
82
ENDCHAR
STARTCHAR U+0079
ENCODING 121
SWIDTH 1090 0
DWIDTH 12 0
BBX 9 7 0 -2
BITMAP
8080
4100
2200
1400
0800
1000
2000
ENDCHAR
STARTCHAR U+007A
ENCODING 122
SWIDTH 1090 0
DWIDTH 12 0
BBX 7 5 0 0
BITMAP
AA
04
10
40
AA
ENDCHAR
STARTCHAR U+007B
ENCODING 123
SWIDTH 1090 0
DWIDTH 12 0
BBX 6 7 2 0
BITMAP
14
20
20
80
20
20
14
ENDCHAR
STARTCHAR U+007C
ENCODING 124
SWIDTH 1090 0
DWIDTH 12 0
BBX 1 7 4 0
BITMAP
80
80
80
00
80
80
80
ENDCHAR
STARTCHAR U+007D
ENCODING 125
SWIDTH 1090 0
DWIDTH 12 0
BBX 6 7 1 0
BITMAP
A0
10
10
04
10
10
A0
ENDCHAR
STARTCHAR U+007E
ENCODING 126
SWIDTH 1090 0
DWIDTH 12 0
BBX 9 3 0 4
BITMAP
5000
8880
0500
ENDCHAR
STARTCHAR U+00A0
ENCODING 160
SWIDTH 1090 0
DWIDTH 12 0
BBX 0 0 0 0
BITMAP
ENDCHAR
STARTCHAR U+00A1
ENCODING 161
SWIDTH 1090 0
DWIDTH 12 0
BBX 1 7 4 -1
BITMAP
80
00
00
80
80
80
80
ENDCHAR
STARTCHAR U+00A2
ENCODING 162
SWIDTH 1090 0
DWIDTH 12 0
BBX 8 6 0 0
BITMAP
08
55
88
88
55
08
ENDCHAR
STARTCHAR U+00A3
ENCODING 163
SWIDTH 1090 0
DWIDTH 12 0
BBX 9 7 0 0
BITMAP
1500
2080
2000
A800
2000
2000
AA80
ENDCHAR
STARTCHAR U+00A4
ENCODING 164
SWIDTH 1090 0
DWIDTH 12 0
BBX 9 7 0 0
BITMAP
8080
2A00
4100
8080
4100
2A00
8080
ENDCHAR
STARTCHAR U+00A5
ENCODING 165
SWIDTH 1090 0
DWIDTH 12 0
BBX 9 7 0 0
BITMAP
8080
2200
AA80
0800
AA80
0800
0800
ENDCHAR
STARTCHAR U+00A6
ENCODING 166
SWIDTH 1090 0
DWIDTH 12 0
BBX 1 7 4 0
BITMAP
80
80
80
00
80
80
80
ENDCHAR
STARTCHAR U+00A7
ENCODING 167
SWIDTH 1090 0
DWIDTH 12 0
BBX 7 7 1 0
BITMAP
54
80
54
82
54
02
54
ENDCHAR
STARTCHAR U+00A8
ENCODING 168
SWIDTH 1090 0
DWIDTH 12 0
BBX 5 1 2 6
BITMAP
88
ENDCHAR
STARTCHAR U+00A9
ENCODING 169
SWIDTH 1090 0
DWIDTH 12 0
BBX 9 8 0 -1
BITMAP
2A00
4100
9480
A080
A080
9480
4100
2A00
ENDCHAR
STARTCHAR U+00AA
ENCODING 170
SWIDTH 1090 0
DWIDTH 12 0
BBX 9 7 0 0
BITMAP
2A00
0100
5500
8100
5480
0000
AA80
ENDCHAR
STARTCHAR U+00AB
ENCODING 171
SWIDTH 1090 0
DWIDTH 12 0
BBX 7 5 1 1
BITMAP
22
44
88
44
22
ENDCHAR
STARTCHAR U+00AC
ENCODING 172
SWIDTH 1090 0
DWIDTH 12 0
BBX 9 3 0 1
BITMAP
AA80
0080
0080
ENDCHAR
STARTCHAR U+00AD
ENCODING 173
SWIDTH 1090 0
DWIDTH 12 0
BBX 9 1 0 3
BITMAP
AA80
ENDCHAR
STARTCHAR U+00AE
ENCODING 174
SWIDTH 1090 0
DWIDTH 12 0
BBX 9 8 0 -1
BITMAP
2A00
4100
A880
A280
A880
A280
4100
2A00
ENDCHAR
STARTCHAR U+00AF
ENCODING 175
SWIDTH 1090 0
DWIDTH 12 0
BBX 5 1 2 6
BITMAP
A8
ENDCHAR
STARTCHAR U+00B0
ENCODING 176
SWIDTH 1090 0
DWIDTH 12 0
BBX 5 3 2 4
BITMAP
50
88
50
ENDCHAR
STARTCHAR U+00B1
ENCODING 177
SWIDTH 1090 0
DWIDTH 12 0
BBX 9 7 0 0
BITMAP
0800
0800
AA80
0800
0800
0000
AA80
ENDCHAR
STARTCHAR U+00B2
ENCODING 178
SWIDTH 1090 0
DWIDTH 12 0
BBX 5 5 2 2
BITMAP
50
88
10
40
A8
ENDCHAR
STARTCHAR U+00B3
ENCODING 179
SWIDTH 1090 0
DWIDTH 12 0
BBX 5 5 2 2
BITMAP
A0
08
20
08
A0
ENDCHAR
STARTCHAR U+00B4
ENCODING 180
SWIDTH 1090 0
DWIDTH 12 0
BBX 2 2 4 5
BITMAP
40
80
ENDCHAR
STARTCHAR U+00B5
ENCODING 181
SWIDTH 1090 0
DWIDTH 12 0
BBX 9 7 0 -2
BITMAP
4100
4100
4100
4100
5480
4000
8000
ENDCHAR
STARTCHAR U+00B6
ENCODING 182
SWIDTH 1090 0
DWIDTH 12 0
BBX 9 7 0 0
BITMAP
2A80
8900
8900
2900
0900
0900
0900
ENDCHAR
STARTCHAR U+00B7
ENCODING 183
SWIDTH 1090 0
DWIDTH 12 0
BBX 1 1 4 3
BITMAP
80
ENDCHAR
STARTCHAR U+00B8
ENCODING 184
SWIDTH 1090 0
DWIDTH 12 0
BBX 4 2 2 -2
BITMAP
10
A0
ENDCHAR
STARTCHAR U+00B9
ENCODING 185
SWIDTH 1090 0
DWIDTH 12 0
BBX 5 5 2 2
BITMAP
20
A0
20
20
A8
ENDCHAR
STARTCHAR U+00BA
ENCODING 186
SWIDTH 1090 0
DWIDTH 12 0
BBX 9 7 0 0
BITMAP
2A00
4100
4100
4100
2A00
0000
AA80
ENDCHAR
STARTCHAR U+00BB
ENCODING 187
SWIDTH 1090 0
DWIDTH 12 0
BBX 7 5 1 1
BITMAP
88
44
22
44
88
ENDCHAR
STARTCHAR U+00BC
ENCODING 188
SWIDTH 1090 0
DWIDTH 12 0
BBX 9 8 0 -1
BITMAP
2000
A000
2080
2200
0880
2280
8A80
0080
ENDCHAR
STARTCHAR U+00BD
ENCODING 189
SWIDTH 1090 0
DWIDTH 12 0
BBX 9 8 0 -1
BITMAP
2000
A000
2080
2200
0A00
2080
8200
0A80
ENDCHAR
STARTCHAR U+00BE
ENCODING 190
SWIDTH 1090 0
DWIDTH 12 0
BBX 9 8 0 -1
BITMAP
A800
2000
0880
A200
0880
2280
8A80
0080
ENDCHAR
STARTCHAR U+00BF
ENCODING 191
SWIDTH 1090 0
DWIDTH 12 0
BBX 9 7 0 -1
BITMAP
0800
0000
0800
2000
8000
8080
2A00
ENDCHAR
STARTCHAR U+00C0
ENCODING 192
SWIDTH 1090 0
DWIDTH 12 0
BBX 9 7 0 0
BITMAP
0800
0400
1400
2200
4100
AA80
8080
ENDCHAR
STARTCHAR U+00C1
ENCODING 193
SWIDTH 1090 0
DWIDTH 12 0
BBX 9 7 0 0
BITMAP
0800
1000
1400
2200
4100
AA80
8080
ENDCHAR
STARTCHAR U+00C2
ENCODING 194
SWIDTH 1090 0
DWIDTH 12 0
BBX 9 7 0 0
BITMAP
1400
4100
1400
2200
4100
AA80
8080
ENDCHAR
STARTCHAR U+00C3
ENCODING 195
SWIDTH 1090 0
DWIDTH 12 0
BBX 9 7 0 0
BITMAP
2880
4500
1400
2200
4100
AA80
8080
ENDCHAR
STARTCHAR U+00C4
ENCODING 196
SWIDTH 1090 0
DWIDTH 12 0
BBX 9 7 0 0
BITMAP
2200
0800
1400
2200
4100
AA80
8080
ENDCHAR
STARTCHAR U+00C5
ENCODING 197
SWIDTH 1090 0
DWIDTH 12 0
BBX 9 7 0 0
BITMAP
1400
2200
1400
2200
4100
AA80
8080
ENDCHAR
STARTCHAR U+00C6
ENCODING 198
SWIDTH 1090 0
DWIDTH 12 0
BBX 9 7 0 0
BITMAP
2A80
4800
8800
AA80
8800
8800
8A80
ENDCHAR
STARTCHAR U+00C7
ENCODING 199
SWIDTH 1090 0
DWIDTH 12 0
BBX 9 9 0 -2
BITMAP
5500
8080
8000
8000
8000
8080
5500
0400
2800
ENDCHAR
STARTCHAR U+00C8
ENCODING 200
SWIDTH 1090 0
DWIDTH 12 0
BBX 9 7 0 0
BITMAP
1000
0800
AA80
8000
AA00
8000
AA80
ENDCHAR
STARTCHAR U+00C9
ENCODING 201
SWIDTH 1090 0
DWIDTH 12 0
BBX 9 7 0 0
BITMAP
0400
0800
AA80
8000
AA00
8000
AA80
ENDCHAR
STARTCHAR U+00CA
ENCODING 202
SWIDTH 1090 0
DWIDTH 12 0
BBX 9 7 0 0
BITMAP
1400
4100
AA80
8000
AA00
8000
AA80
ENDCHAR
STARTCHAR U+00CB
ENCODING 203
SWIDTH 1090 0
DWIDTH 12 0
BBX 9 7 0 0
BITMAP
2200
0000
AA80
8000
AA00
8000
AA80
ENDCHAR
STARTCHAR U+00CC
ENCODING 204
SWIDTH 1090 0
DWIDTH 12 0
BBX 5 7 2 0
BITMAP
40
20
A8
20
20
20
A8
ENDCHAR
STARTCHAR U+00CD
ENCODING 205
SWIDTH 1090 0
DWIDTH 12 0
BBX 5 7 2 0
BITMAP
10
20
A8
20
20
20
A8
ENDCHAR
STARTCHAR U+00CE
ENCODING 206
SWIDTH 1090 0
DWIDTH 12 0
BBX 7 7 1 0
BITMAP
28
82
54
10
10
10
54
ENDCHAR
STARTCHAR U+00CF
ENCODING 207
SWIDTH 1090 0
DWIDTH 12 0
BBX 5 7 2 0
BITMAP
88
00
A8
20
20
20
A8
ENDCHAR
STARTCHAR U+00D0
ENCODING 208
SWIDTH 1090 0
DWIDTH 12 0
BBX 9 7 0 0
BITMAP
AA00
4100
4080
A880
4080
4100
AA00
ENDCHAR
STARTCHAR U+00D1
ENCODING 209
SWIDTH 1090 0
DWIDTH 12 0
BBX 9 7 0 0
BITMAP
5080
8500
8080
A080
8880
8280
8080
ENDCHAR
STARTCHAR U+00D2
ENCODING 210
SWIDTH 1090 0
DWIDTH 12 0
BBX 9 7 0 0
BITMAP
1000
0800
5500
8080
8080
8080
5500
ENDCHAR
STARTCHAR U+00D3
ENCODING 211
SWIDTH 1090 0
DWIDTH 12 0
BBX 9 7 0 0
BITMAP
0400
0800
5500
8080
8080
8080
5500
ENDCHAR
STARTCHAR U+00D4
ENCODING 212
SWIDTH 1090 0
DWIDTH 12 0
BBX 9 7 0 0
BITMAP
1400
4100
5500
8080
8080
8080
5500
ENDCHAR
STARTCHAR U+00D5
ENCODING 213
SWIDTH 1090 0
DWIDTH 12 0
BBX 9 7 0 0
BITMAP
5080
8500
5500
8080
8080
8080
5500
ENDCHAR
STARTCHAR U+00D6
ENCODING 214
SWIDTH 1090 0
DWIDTH 12 0
BBX 9 7 0 0
BITMAP
2200
0000
5500
8080
8080
8080
5500
ENDCHAR
STARTCHAR U+00D7
ENCODING 215
SWIDTH 1090 0
DWIDTH 12 0
BBX 9 5 0 1
BITMAP
8080
2200
0800
2200
8080
ENDCHAR
STARTCHAR U+00D8
ENCODING 216
SWIDTH 1090 0
DWIDTH 12 0
BBX 9 7 0 0
BITMAP
1480
4100
8480
8880
9080
4100
9400
ENDCHAR
STARTCHAR U+00D9
ENCODING 217
SWIDTH 1090 0
DWIDTH 12 0
BBX 9 7 0 0
BITMAP
1000
0800
8080
8080
8080
8080
5500
ENDCHAR
STARTCHAR U+00DA
ENCODING 218
SWIDTH 1090 0
DWIDTH 12 0
BBX 9 7 0 0
BITMAP
1000
0800
8080
8080
8080
8080
5500
ENDCHAR
STARTCHAR U+00DB
ENCODING 219
SWIDTH 1090 0
DWIDTH 12 0
BBX 9 7 0 0
BITMAP
1400
4100
0000
8080
8080
8080
5500
ENDCHAR
STARTCHAR U+00DC
ENCODING 220
SWIDTH 1090 0
DWIDTH 12 0
BBX 9 7 0 0
BITMAP
2200
0000
8080
8080
8080
8080
5500
ENDCHAR
STARTCHAR U+00DD
ENCODING 221
SWIDTH 1090 0
DWIDTH 12 0
BBX 7 7 1 0
BITMAP
08
10
82
44
28
10
10
ENDCHAR
STARTCHAR U+00DE
ENCODING 222
SWIDTH 1090 0
DWIDTH 12 0
BBX 8 7 0 0
BITMAP
80
AA
81
81
81
AA
80
ENDCHAR
STARTCHAR U+00DF
ENCODING 223
SWIDTH 1090 0
DWIDTH 12 0
BBX 8 7 0 0
BITMAP
54
81
81
8A
81
81
8A
ENDCHAR
STARTCHAR U+00E0
ENCODING 224
SWIDTH 1090 0
DWIDTH 12 0
BBX 9 7 0 0
BITMAP
1000
0800
2A00
0100
5500
8100
5480
ENDCHAR
STARTCHAR U+00E1
ENCODING 225
SWIDTH 1090 0
DWIDTH 12 0
BBX 9 7 0 0
BITMAP
0400
0800
2A00
0100
5500
8100
5480
ENDCHAR
STARTCHAR U+00E2
ENCODING 226
SWIDTH 1090 0
DWIDTH 12 0
BBX 9 7 0 0
BITMAP
1400
4100
2A00
0100
5500
8100
5480
ENDCHAR
STARTCHAR U+00E3
ENCODING 227
SWIDTH 1090 0
DWIDTH 12 0
BBX 9 7 0 0
BITMAP
5100
8A00
2A00
0100
5500
8100
5480
ENDCHAR
STARTCHAR U+00E4
ENCODING 228
SWIDTH 1090 0
DWIDTH 12 0
BBX 9 7 0 0
BITMAP
2200
0000
2A00
0100
5500
8100
5480
ENDCHAR
STARTCHAR U+00E5
ENCODING 229
SWIDTH 1090 0
DWIDTH 12 0
BBX 9 7 0 0
BITMAP
1400
2200
2A00
0100
5500
8100
5480
ENDCHAR
STARTCHAR U+00E6
ENCODING 230
SWIDTH 1090 0
DWIDTH 12 0
BBX 9 5 0 0
BITMAP
A500
0880
AA80
8800
5280
ENDCHAR
STARTCHAR U+00E7
ENCODING 231
SWIDTH 1090 0
DWIDTH 12 0
BBX 8 7 0 -2
BITMAP
55
80
80
80
55
04
28
ENDCHAR
STARTCHAR U+00E8
ENCODING 232
SWIDTH 1090 0
DWIDTH 12 0
BBX 9 7 0 0
BITMAP
1000
0800
5500
8080
AA80
8000
5500
ENDCHAR
STARTCHAR U+00E9
ENCODING 233
SWIDTH 1090 0
DWIDTH 12 0
BBX 9 7 0 0
BITMAP
0400
0800
5500
8080
AA80
8000
5500
ENDCHAR
STARTCHAR U+00EA
ENCODING 234
SWIDTH 1090 0
DWIDTH 12 0
BBX 9 7 0 0
BITMAP
1400
4100
5500
8080
AA80
8000
5500
ENDCHAR
STARTCHAR U+00EB
ENCODING 235
SWIDTH 1090 0
DWIDTH 12 0
BBX 9 7 0 0
BITMAP
2200
0000
5500
8080
AA80
8000
5500
ENDCHAR
STARTCHAR U+00EC
ENCODING 236
SWIDTH 1090 0
DWIDTH 12 0
BBX 5 7 1 0
BITMAP
40
20
A0
20
20
20
A8
ENDCHAR
STARTCHAR U+00ED
ENCODING 237
SWIDTH 1090 0
DWIDTH 12 0
BBX 5 7 1 0
BITMAP
10
20
A0
20
20
20
A8
ENDCHAR
STARTCHAR U+00EE
ENCODING 238
SWIDTH 1090 0
DWIDTH 12 0
BBX 7 7 0 0
BITMAP
28
82
50
10
10
10
54
ENDCHAR
STARTCHAR U+00EF
ENCODING 239
SWIDTH 1090 0
DWIDTH 12 0
BBX 5 7 1 0
BITMAP
88
00
A0
20
20
20
A8
ENDCHAR
STARTCHAR U+00F0
ENCODING 240
SWIDTH 1090 0
DWIDTH 12 0
BBX 9 7 0 0
BITMAP
2880
0200
5500
8080
8080
8080
5500
ENDCHAR
STARTCHAR U+00F1
ENCODING 241
SWIDTH 1090 0
DWIDTH 12 0
BBX 8 7 0 0
BITMAP
51
8A
AA
81
81
81
81
ENDCHAR
STARTCHAR U+00F2
ENCODING 242
SWIDTH 1090 0
DWIDTH 12 0
BBX 9 7 0 0
BITMAP
1000
0800
5500
8080
8080
8080
5500
ENDCHAR
STARTCHAR U+00F3
ENCODING 243
SWIDTH 1090 0
DWIDTH 12 0
BBX 9 7 0 0
BITMAP
0400
0800
5500
8080
8080
8080
5500
ENDCHAR
STARTCHAR U+00F4
ENCODING 244
SWIDTH 1090 0
DWIDTH 12 0
BBX 9 7 0 0
BITMAP
1400
4100
5500
8080
8080
8080
5500
ENDCHAR
STARTCHAR U+00F5
ENCODING 245
SWIDTH 1090 0
DWIDTH 12 0
BBX 9 7 0 0
BITMAP
5080
8500
5500
8080
8080
8080
5500
ENDCHAR
STARTCHAR U+00F6
ENCODING 246
SWIDTH 1090 0
DWIDTH 12 0
BBX 9 7 0 0
BITMAP
2200
0000
5500
8080
8080
8080
5500
ENDCHAR
STARTCHAR U+00F7
ENCODING 247
SWIDTH 1090 0
DWIDTH 12 0
BBX 9 5 0 1
BITMAP
0800
0000
AA80
0000
0800
ENDCHAR
STARTCHAR U+00F8
ENCODING 248
SWIDTH 1090 0
DWIDTH 12 0
BBX 7 5 1 0
BITMAP
54
8A
92
A2
54
ENDCHAR
STARTCHAR U+00F9
ENCODING 249
SWIDTH 1090 0
DWIDTH 12 0
BBX 8 7 1 0
BITMAP
20
10
82
82
82
82
29
ENDCHAR
STARTCHAR U+00FA
ENCODING 250
SWIDTH 1090 0
DWIDTH 12 0
BBX 8 7 1 0
BITMAP
08
10
82
82
82
82
29
ENDCHAR
STARTCHAR U+00FB
ENCODING 251
SWIDTH 1090 0
DWIDTH 12 0
BBX 8 7 1 0
BITMAP
28
82
00
82
82
82
29
ENDCHAR
STARTCHAR U+00FC
ENCODING 252
SWIDTH 1090 0
DWIDTH 12 0
BBX 8 7 1 0
BITMAP
44
00
82
82
82
82
29
ENDCHAR
STARTCHAR U+00FD
ENCODING 253
SWIDTH 1090 0
DWIDTH 12 0
BBX 9 9 0 -2
BITMAP
0400
0800
8080
4100
2200
1400
0800
1000
2000
ENDCHAR
STARTCHAR U+00FE
ENCODING 254
SWIDTH 1090 0
DWIDTH 12 0
BBX 8 8 0 -1
BITMAP
80
80
AA
81
81
AA
80
80
ENDCHAR
STARTCHAR U+00FF
ENCODING 255
SWIDTH 1090 0
DWIDTH 12 0
BBX 9 9 0 -2
BITMAP
2200
0000
8080
4100
2200
1400
0800
1000
2000
ENDCHAR
STARTCHAR U+0100
ENCODING 256
SWIDTH 1090 0
DWIDTH 12 0
BBX 9 7 0 0
BITMAP
2A00
0000
1400
2200
4100
AA80
8080
ENDCHAR
STARTCHAR U+0101
ENCODING 257
SWIDTH 1090 0
DWIDTH 12 0
BBX 9 7 0 0
BITMAP
2A00
0000
2A00
0100
5500
8100
5480
ENDCHAR
STARTCHAR U+0102
ENCODING 258
SWIDTH 1090 0
DWIDTH 12 0
BBX 9 7 0 0
BITMAP
4100
1400
1400
2200
4100
AA80
8080
ENDCHAR
STARTCHAR U+0103
ENCODING 259
SWIDTH 1090 0
DWIDTH 12 0
BBX 9 7 0 0
BITMAP
4100
1400
2A00
0100
5500
8100
5480
ENDCHAR
STARTCHAR U+0104
ENCODING 260
SWIDTH 1090 0
DWIDTH 12 0
BBX 9 9 0 -2
BITMAP
1400
2200
4100
8080
AA80
8080
8080
0100
0080
ENDCHAR
STARTCHAR U+0105
ENCODING 261
SWIDTH 1090 0
DWIDTH 12 0
BBX 9 7 0 -2
BITMAP
2A00
0100
5500
8100
5480
0100
0080
ENDCHAR
STARTCHAR U+0106
ENCODING 262
SWIDTH 1090 0
DWIDTH 12 0
BBX 9 7 0 0
BITMAP
0400
0800
5500
8080
8000
8080
5500
ENDCHAR
STARTCHAR U+0107
ENCODING 263
SWIDTH 1090 0
DWIDTH 12 0
BBX 8 7 0 0
BITMAP
04
08
55
80
80
80
55
ENDCHAR
STARTCHAR U+010A
ENCODING 266
SWIDTH 1090 0
DWIDTH 12 0
BBX 9 7 0 0
BITMAP
0800
0000
5500
8080
8000
8080
5500
ENDCHAR
STARTCHAR U+010B
ENCODING 267
SWIDTH 1090 0
DWIDTH 12 0
BBX 8 7 0 0
BITMAP
08
00
55
80
80
80
55
ENDCHAR
STARTCHAR U+010C
ENCODING 268
SWIDTH 1090 0
DWIDTH 12 0
BBX 9 7 0 0
BITMAP
4100
1400
5500
8080
8000
8080
5500
ENDCHAR
STARTCHAR U+010D
ENCODING 269
SWIDTH 1090 0
DWIDTH 12 0
BBX 8 7 0 0
BITMAP
41
14
55
80
80
80
55
ENDCHAR
STARTCHAR U+010E
ENCODING 270
SWIDTH 1090 0
DWIDTH 12 0
BBX 9 7 0 0
BITMAP
4100
1400
EA00
4080
4080
4080
AA00
ENDCHAR
STARTCHAR U+010F
ENCODING 271
SWIDTH 1090 0
DWIDTH 12 0
BBX 10 7 0 0
BITMAP
0240
0240
2A40
8200
8200
8200
2A00
ENDCHAR
STARTCHAR U+0110
ENCODING 272
SWIDTH 1090 0
DWIDTH 12 0
BBX 9 7 0 0
BITMAP
AA00
4100
4080
A880
4080
4100
AA00
ENDCHAR
STARTCHAR U+0111
ENCODING 273
SWIDTH 1090 0
DWIDTH 12 0
BBX 9 7 0 0
BITMAP
0100
0280
5500
8100
8100
8100
5500
ENDCHAR
STARTCHAR U+0112
ENCODING 274
SWIDTH 1090 0
DWIDTH 12 0
BBX 9 7 0 0
BITMAP
2A00
0000
AA80
8000
AA00
8000
AA80
ENDCHAR
STARTCHAR U+0113
ENCODING 275
SWIDTH 1090 0
DWIDTH 12 0
BBX 9 7 0 0
BITMAP
2A00
0000
5500
8080
AA80
8000
5500
ENDCHAR
STARTCHAR U+0116
ENCODING 278
SWIDTH 1090 0
DWIDTH 12 0
BBX 9 7 0 0
BITMAP
0800
0000
AA80
8000
AA00
8000
AA80
ENDCHAR
STARTCHAR U+0117
ENCODING 279
SWIDTH 1090 0
DWIDTH 12 0
BBX 9 7 0 0
BITMAP
0800
0000
5500
8080
AA80
8000
5500
ENDCHAR
STARTCHAR U+0118
ENCODING 280
SWIDTH 1090 0
DWIDTH 12 0
BBX 9 9 0 -2
BITMAP
AA80
8000
8000
AA00
8000
8000
AA80
0100
0080
ENDCHAR
STARTCHAR U+0119
ENCODING 281
SWIDTH 1090 0
DWIDTH 12 0
BBX 9 7 0 -2
BITMAP
5500
8080
AA80
8000
5500
0800
0400
ENDCHAR
STARTCHAR U+011A
ENCODING 282
SWIDTH 1090 0
DWIDTH 12 0
BBX 9 7 0 0
BITMAP
4100
1400
AA80
8000
AA00
8000
AA80
ENDCHAR
STARTCHAR U+011B
ENCODING 283
SWIDTH 1090 0
DWIDTH 12 0
BBX 9 7 0 0
BITMAP
4100
1400
5500
8080
AA80
8000
5500
ENDCHAR
STARTCHAR U+011E
ENCODING 286
SWIDTH 1090 0
DWIDTH 12 0
BBX 9 7 0 0
BITMAP
4100
1400
5500
8000
8A80
8080
5500
ENDCHAR
STARTCHAR U+011F
ENCODING 287
SWIDTH 1090 0
DWIDTH 12 0
BBX 8 9 0 -2
BITMAP
41
14
55
81
81
81
55
01
2A
ENDCHAR
STARTCHAR U+0120
ENCODING 288
SWIDTH 1090 0
DWIDTH 12 0
BBX 9 7 0 0
BITMAP
0800
0000
5500
8000
8A80
8080
5500
ENDCHAR
STARTCHAR U+0121
ENCODING 289
SWIDTH 1090 0
DWIDTH 12 0
BBX 8 9 0 -2
BITMAP
08
00
55
81
81
81
55
01
2A
ENDCHAR
STARTCHAR U+0122
ENCODING 290
SWIDTH 1090 0
DWIDTH 12 0
BBX 9 9 0 -2
BITMAP
5500
8080
8000
8A80
8080
8080
5500
0800
1000
ENDCHAR
STARTCHAR U+0123
ENCODING 291
SWIDTH 1090 0
DWIDTH 12 0
BBX 8 9 0 -2
BITMAP
04
08
55
81
81
81
55
01
2A
ENDCHAR
STARTCHAR U+0126
ENCODING 294
SWIDTH 1090 0
DWIDTH 12 0
BBX 9 7 0 0
BITMAP
4100
AA80
4100
AA80
4100
4100
4100
ENDCHAR
STARTCHAR U+0127
ENCODING 295
SWIDTH 1090 0
DWIDTH 12 0
BBX 8 7 0 0
BITMAP
40
A0
54
41
41
41
41
ENDCHAR
STARTCHAR U+012A
ENCODING 298
SWIDTH 1090 0
DWIDTH 12 0
BBX 5 7 2 0
BITMAP
A8
00
A8
20
20
20
A8
ENDCHAR
STARTCHAR U+012B
ENCODING 299
SWIDTH 1090 0
DWIDTH 12 0
BBX 5 7 1 0
BITMAP
A8
00
A0
20
20
20
A8
ENDCHAR
STARTCHAR U+012E
ENCODING 302
SWIDTH 1090 0
DWIDTH 12 0
BBX 5 9 2 -2
BITMAP
A8
20
20
20
20
20
A8
20
10
ENDCHAR
STARTCHAR U+012F
ENCODING 303
SWIDTH 1090 0
DWIDTH 12 0
BBX 5 9 1 -2
BITMAP
20
00
A0
20
20
20
A8
20
10
ENDCHAR
STARTCHAR U+0130
ENCODING 304
SWIDTH 1090 0
DWIDTH 12 0
BBX 5 7 2 0
BITMAP
20
00
A8
20
20
20
A8
ENDCHAR
STARTCHAR U+0131
ENCODING 305
SWIDTH 1090 0
DWIDTH 12 0
BBX 5 5 1 0
BITMAP
A0
20
20
20
A8
ENDCHAR
STARTCHAR U+0136
ENCODING 310
SWIDTH 1090 0
DWIDTH 12 0
BBX 9 9 0 -2
BITMAP
8080
8200
8800
A000
8800
8200
8080
0800
1000
ENDCHAR
STARTCHAR U+0137
ENCODING 311
SWIDTH 1090 0
DWIDTH 12 0
BBX 7 9 1 -2
BITMAP
80
80
82
88
A0
88
82
10
20
ENDCHAR
STARTCHAR U+0139
ENCODING 313
SWIDTH 1090 0
DWIDTH 12 0
BBX 9 7 0 0
BITMAP
8400
8800
8000
8000
8000
8000
AA80
ENDCHAR
STARTCHAR U+013A
ENCODING 314
SWIDTH 1090 0
DWIDTH 12 0
BBX 5 7 1 0
BITMAP
10
20
A0
20
20
20
A8
ENDCHAR
STARTCHAR U+013B
ENCODING 315
SWIDTH 1090 0
DWIDTH 12 0
BBX 9 9 0 -2
BITMAP
8000
8000
8000
8000
8000
8000
AA80
0800
1000
ENDCHAR
STARTCHAR U+013C
ENCODING 316
SWIDTH 1090 0
DWIDTH 12 0
BBX 5 9 1 -2
BITMAP
A0
20
20
20
20
20
A8
20
40
ENDCHAR
STARTCHAR U+013D
ENCODING 317
SWIDTH 1090 0
DWIDTH 12 0
BBX 9 7 0 0
BITMAP
8080
8080
8080
8000
8000
8000
AA80
ENDCHAR
STARTCHAR U+013E
ENCODING 318
SWIDTH 1090 0
DWIDTH 12 0
BBX 7 7 1 0
BITMAP
A2
22
22
20
20
20
A8
ENDCHAR
STARTCHAR U+013F
ENCODING 319
SWIDTH 1090 0
DWIDTH 12 0
BBX 9 7 0 0
BITMAP
8000
8000
8000
8080
8000
8000
AA80
ENDCHAR
STARTCHAR U+0140
ENCODING 320
SWIDTH 1090 0
DWIDTH 12 0
BBX 9 7 1 0
BITMAP
A000
2000
2000
2080
2000
2000
A800
ENDCHAR
STARTCHAR U+0141
ENCODING 321
SWIDTH 1090 0
DWIDTH 12 0
BBX 9 7 0 0
BITMAP
2000
2000
2800
A000
2000
2000
2A80
ENDCHAR
STARTCHAR U+0142
ENCODING 322
SWIDTH 1090 0
DWIDTH 12 0
BBX 5 7 1 0
BITMAP
A0
20
28
A0
20
20
A8
ENDCHAR
STARTCHAR U+0143
ENCODING 323
SWIDTH 1090 0
DWIDTH 12 0
BBX 9 7 0 0
BITMAP
0400
0800
8080
A080
8880
8280
8080
ENDCHAR
STARTCHAR U+0144
ENCODING 324
SWIDTH 1090 0
DWIDTH 12 0
BBX 8 7 0 0
BITMAP
08
10
AA
81
81
81
81
ENDCHAR
STARTCHAR U+0145
ENCODING 325
SWIDTH 1090 0
DWIDTH 12 0
BBX 9 9 0 -2
BITMAP
8080
A080
9080
8880
8480
8280
8080
0800
1000
ENDCHAR
STARTCHAR U+0146
ENCODING 326
SWIDTH 1090 0
DWIDTH 12 0
BBX 8 7 0 -2
BITMAP
AA
81
81
81
81
08
10
ENDCHAR
STARTCHAR U+0147
ENCODING 327
SWIDTH 1090 0
DWIDTH 12 0
BBX 9 7 0 0
BITMAP
4100
1400
8080
A080
8880
8280
8080
ENDCHAR
STARTCHAR U+0148
ENCODING 328
SWIDTH 1090 0
DWIDTH 12 0
BBX 8 7 0 0
BITMAP
82
28
AA
81
81
81
81
ENDCHAR
STARTCHAR U+0150
ENCODING 336
SWIDTH 1090 0
DWIDTH 12 0
BBX 9 7 0 0
BITMAP
1100
2200
5500
8080
8080
8080
5500
ENDCHAR
STARTCHAR U+0151
ENCODING 337
SWIDTH 1090 0
DWIDTH 12 0
BBX 9 7 0 0
BITMAP
1100
2200
5500
8080
8080
8080
5500
ENDCHAR
STARTCHAR U+0152
ENCODING 338
SWIDTH 1090 0
DWIDTH 12 0
BBX 9 7 0 0
BITMAP
2A80
8800
8800
8A80
8800
8800
2A80
ENDCHAR
STARTCHAR U+0153
ENCODING 339
SWIDTH 1090 0
DWIDTH 12 0
BBX 9 5 0 0
BITMAP
5500
8880
8A80
8800
5500
ENDCHAR
STARTCHAR U+0154
ENCODING 340
SWIDTH 1090 0
DWIDTH 12 0
BBX 9 7 0 0
BITMAP
0400
0800
AA00
8080
AA00
8100
8080
ENDCHAR
STARTCHAR U+0155
ENCODING 341
SWIDTH 1090 0
DWIDTH 12 0
BBX 8 7 0 0
BITMAP
04
08
95
A0
80
80
80
ENDCHAR
STARTCHAR U+0158
ENCODING 344
SWIDTH 1090 0
DWIDTH 12 0
BBX 9 7 0 0
BITMAP
4100
1400
AA00
8080
AA00
8100
8080
ENDCHAR
STARTCHAR U+0159
ENCODING 345
SWIDTH 1090 0
DWIDTH 12 0
BBX 8 7 0 0
BITMAP
41
14
95
A0
80
80
80
ENDCHAR
STARTCHAR U+015A
ENCODING 346
SWIDTH 1090 0
DWIDTH 12 0
BBX 9 7 0 0
BITMAP
0400
0800
5500
8000
5500
0080
5500
ENDCHAR
STARTCHAR U+015B
ENCODING 347
SWIDTH 1090 0
DWIDTH 12 0
BBX 9 7 0 0
BITMAP
0400
0800
5500
8000
5500
0080
5500
ENDCHAR
STARTCHAR U+015E
ENCODING 350
SWIDTH 1090 0
DWIDTH 12 0
BBX 9 9 0 -2
BITMAP
5500
8080
8000
5500
0080
8080
5500
0400
2800
ENDCHAR
STARTCHAR U+015F
ENCODING 351
SWIDTH 1090 0
DWIDTH 12 0
BBX 9 7 0 -2
BITMAP
5500
8000
5500
0080
5500
0400
2800
ENDCHAR
STARTCHAR U+0160
ENCODING 352
SWIDTH 1090 0
DWIDTH 12 0
BBX 9 7 0 0
BITMAP
4100
1400
5500
8000
5500
0080
5500
ENDCHAR
STARTCHAR U+0161
ENCODING 353
SWIDTH 1090 0
DWIDTH 12 0
BBX 9 7 0 0
BITMAP
4100
1400
5500
8000
5500
0080
5500
ENDCHAR
STARTCHAR U+0164
ENCODING 356
SWIDTH 1090 0
DWIDTH 12 0
BBX 9 7 0 0
BITMAP
4100
1400
AA80
0800
0800
0800
0800
ENDCHAR
STARTCHAR U+0165
ENCODING 357
SWIDTH 1090 0
DWIDTH 12 0
BBX 9 7 0 0
BITMAP
2080
2080
A880
2000
2000
2000
1400
ENDCHAR
STARTCHAR U+016A
ENCODING 362
SWIDTH 1090 0
DWIDTH 12 0
BBX 9 7 0 0
BITMAP
2A00
0000
8080
8080
8080
8080
5500
ENDCHAR
STARTCHAR U+016B
ENCODING 363
SWIDTH 1090 0
DWIDTH 12 0
BBX 8 7 1 0
BITMAP
54
00
82
82
82
82
29
ENDCHAR
STARTCHAR U+016E
ENCODING 366
SWIDTH 1090 0
DWIDTH 12 0
BBX 9 7 0 0
BITMAP
1400
2200
1400
8080
8080
8080
5500
ENDCHAR
STARTCHAR U+016F
ENCODING 367
SWIDTH 1090 0
DWIDTH 12 0
BBX 8 7 1 0
BITMAP
28
44
28
82
82
82
29
ENDCHAR
STARTCHAR U+0170
ENCODING 368
SWIDTH 1090 0
DWIDTH 12 0
BBX 9 7 0 0
BITMAP
1100
2200
8080
8080
8080
8080
5500
ENDCHAR
STARTCHAR U+0171
ENCODING 369
SWIDTH 1090 0
DWIDTH 12 0
BBX 8 7 1 0
BITMAP
22
44
00
82
82
82
29
ENDCHAR
STARTCHAR U+0172
ENCODING 370
SWIDTH 1090 0
DWIDTH 12 0
BBX 9 9 0 -2
BITMAP
8080
8080
8080
8080
8080
8080
5500
0800
0400
ENDCHAR
STARTCHAR U+0173
ENCODING 371
SWIDTH 1090 0
DWIDTH 12 0
BBX 9 7 0 -2
BITMAP
8100
8100
8100
8100
5480
0100
0080
ENDCHAR
STARTCHAR U+0174
ENCODING 372
SWIDTH 1090 0
DWIDTH 12 0
BBX 9 7 0 0
BITMAP
1400
4100
0000
8880
9480
A280
4100
ENDCHAR
STARTCHAR U+0175
ENCODING 373
SWIDTH 1090 0
DWIDTH 12 0
BBX 9 7 0 0
BITMAP
1400
4100
0000
8880
9480
A280
4100
ENDCHAR
STARTCHAR U+0176
ENCODING 374
SWIDTH 1090 0
DWIDTH 12 0
BBX 7 7 1 0
BITMAP
28
82
00
44
28
10
10
ENDCHAR
STARTCHAR U+0177
ENCODING 375
SWIDTH 1090 0
DWIDTH 12 0
BBX 7 9 1 -2
BITMAP
28
82
00
82
44
28
10
20
40
ENDCHAR
STARTCHAR U+0178
ENCODING 376
SWIDTH 1090 0
DWIDTH 12 0
BBX 7 7 1 0
BITMAP
44
00
82
44
28
10
10
ENDCHAR
STARTCHAR U+0179
ENCODING 377
SWIDTH 1090 0
DWIDTH 12 0
BBX 7 7 1 0
BITMAP
08
10
AA
04
10
40
AA
ENDCHAR
STARTCHAR U+017A
ENCODING 378
SWIDTH 1090 0
DWIDTH 12 0
BBX 7 7 0 0
BITMAP
08
10
AA
04
10
40
AA
ENDCHAR
STARTCHAR U+017B
ENCODING 379
SWIDTH 1090 0
DWIDTH 12 0
BBX 7 7 1 0
BITMAP
10
00
AA
04
10
40
AA
ENDCHAR
STARTCHAR U+017C
ENCODING 380
SWIDTH 1090 0
DWIDTH 12 0
BBX 7 7 0 0
BITMAP
10
00
AA
04
10
40
AA
ENDCHAR
STARTCHAR U+017D
ENCODING 381
SWIDTH 1090 0
DWIDTH 12 0
BBX 7 7 1 0
BITMAP
82
28
AA
04
10
40
AA
ENDCHAR
STARTCHAR U+017E
ENCODING 382
SWIDTH 1090 0
DWIDTH 12 0
BBX 7 7 0 0
BITMAP
82
28
AA
04
10
40
AA
ENDCHAR
STARTCHAR U+0192
ENCODING 402
SWIDTH 1090 0
DWIDTH 12 0
BBX 9 8 0 -1
BITMAP
1500
2080
2000
A800
2000
2000
2000
8000
ENDCHAR
STARTCHAR U+0218
ENCODING 536
SWIDTH 1090 0
DWIDTH 12 0
BBX 9 9 0 -2
BITMAP
5500
8080
8000
5500
0080
8080
5500
0800
1000
ENDCHAR
STARTCHAR U+0219
ENCODING 537
SWIDTH 1090 0
DWIDTH 12 0
BBX 9 7 0 -2
BITMAP
5500
8000
5500
0080
5500
0800
1000
ENDCHAR
STARTCHAR U+021A
ENCODING 538
SWIDTH 1090 0
DWIDTH 12 0
BBX 9 9 0 -2
BITMAP
AA80
0800
0800
0800
0800
0800
0800
0400
0800
ENDCHAR
STARTCHAR U+021B
ENCODING 539
SWIDTH 1090 0
DWIDTH 12 0
BBX 8 9 0 -2
BITMAP
20
20
AA
20
20
20
15
04
08
ENDCHAR
STARTCHAR U+0237
ENCODING 567
SWIDTH 1090 0
DWIDTH 12 0
BBX 6 6 1 -1
BITMAP
14
04
04
04
04
A8
ENDCHAR
STARTCHAR U+02C6
ENCODING 710
SWIDTH 1090 0
DWIDTH 12 0
BBX 7 2 1 5
BITMAP
28
82
ENDCHAR
STARTCHAR U+02C7
ENCODING 711
SWIDTH 1090 0
DWIDTH 12 0
BBX 7 2 1 5
BITMAP
82
28
ENDCHAR
STARTCHAR U+02D8
ENCODING 728
SWIDTH 1090 0
DWIDTH 12 0
BBX 7 2 1 5
BITMAP
82
28
ENDCHAR
STARTCHAR U+02D9
ENCODING 729
SWIDTH 1090 0
DWIDTH 12 0
BBX 1 1 4 6
BITMAP
80
ENDCHAR
STARTCHAR U+02DA
ENCODING 730
SWIDTH 1090 0
DWIDTH 12 0
BBX 5 3 2 4
BITMAP
50
88
50
ENDCHAR
STARTCHAR U+02DB
ENCODING 731
SWIDTH 1090 0
DWIDTH 12 0
BBX 2 2 3 0
BITMAP
80
40
ENDCHAR
STARTCHAR U+02DC
ENCODING 732
SWIDTH 1090 0
DWIDTH 12 0
BBX 9 2 0 5
BITMAP
5080
8500
ENDCHAR
STARTCHAR U+02DD
ENCODING 733
SWIDTH 1090 0
DWIDTH 12 0
BBX 6 2 2 5
BITMAP
44
88
ENDCHAR
STARTCHAR U+0300
ENCODING 768
SWIDTH 1090 0
DWIDTH 12 0
BBX 2 2 3 5
BITMAP
80
40
ENDCHAR
STARTCHAR U+0301
ENCODING 769
SWIDTH 1090 0
DWIDTH 12 0
BBX 2 2 4 5
BITMAP
40
80
ENDCHAR
STARTCHAR U+0302
ENCODING 770
SWIDTH 1090 0
DWIDTH 12 0
BBX 7 2 1 5
BITMAP
28
82
ENDCHAR
STARTCHAR U+0303
ENCODING 771
SWIDTH 1090 0
DWIDTH 12 0
BBX 9 2 0 5
BITMAP
5080
8500
ENDCHAR
STARTCHAR U+0304
ENCODING 772
SWIDTH 1090 0
DWIDTH 12 0
BBX 5 1 2 6
BITMAP
A8
ENDCHAR
STARTCHAR U+0306
ENCODING 774
SWIDTH 1090 0
DWIDTH 12 0
BBX 7 2 1 5
BITMAP
82
28
ENDCHAR
STARTCHAR U+0307
ENCODING 775
SWIDTH 1090 0
DWIDTH 12 0
BBX 1 1 4 6
BITMAP
80
ENDCHAR
STARTCHAR U+0308
ENCODING 776
SWIDTH 1090 0
DWIDTH 12 0
BBX 5 1 2 6
BITMAP
88
ENDCHAR
STARTCHAR U+030A
ENCODING 778
SWIDTH 1090 0
DWIDTH 12 0
BBX 5 3 2 4
BITMAP
50
88
50
ENDCHAR
STARTCHAR U+030B
ENCODING 779
SWIDTH 1090 0
DWIDTH 12 0
BBX 6 2 2 5
BITMAP
44
88
ENDCHAR
STARTCHAR U+030C
ENCODING 780
SWIDTH 1090 0
DWIDTH 12 0
BBX 7 2 1 5
BITMAP
82
28
ENDCHAR
STARTCHAR U+0326
ENCODING 806
SWIDTH 1090 0
DWIDTH 12 0
BBX 2 2 4 0
BITMAP
40
80
ENDCHAR
STARTCHAR U+0327
ENCODING 807
SWIDTH 1090 0
DWIDTH 12 0
BBX 2 2 3 0
BITMAP
80
40
ENDCHAR
STARTCHAR U+0328
ENCODING 808
SWIDTH 1090 0
DWIDTH 12 0
BBX 4 2 2 0
BITMAP
10
A0
ENDCHAR
STARTCHAR U+0374
ENCODING 884
SWIDTH 1090 0
DWIDTH 12 0
BBX 1 2 4 5
BITMAP
80
80
ENDCHAR
STARTCHAR U+0375
ENCODING 885
SWIDTH 1090 0
DWIDTH 12 0
BBX 2 2 4 -1
BITMAP
40
80
ENDCHAR
STARTCHAR U+037E
ENCODING 894
SWIDTH 1090 0
DWIDTH 12 0
BBX 3 7 2 -2
BITMAP
A0
A0
00
A0
A0
20
80
ENDCHAR
STARTCHAR U+0384
ENCODING 900
SWIDTH 1090 0
DWIDTH 12 0
BBX 1 2 4 5
BITMAP
80
80
ENDCHAR
STARTCHAR U+0385
ENCODING 901
SWIDTH 1090 0
DWIDTH 12 0
BBX 5 2 2 5
BITMAP
A8
40
ENDCHAR
STARTCHAR U+0386
ENCODING 902
SWIDTH 1090 0
DWIDTH 12 0
BBX 9 7 0 0
BITMAP
4400
8A00
1100
2080
2A80
2080
2080
ENDCHAR
STARTCHAR U+0387
ENCODING 903
SWIDTH 1090 0
DWIDTH 12 0
BBX 1 1 4 3
BITMAP
80
ENDCHAR
STARTCHAR U+0388
ENCODING 904
SWIDTH 1090 0
DWIDTH 12 0
BBX 10 7 0 0
BITMAP
5540
9000
1000
1540
1000
1000
1540
ENDCHAR
STARTCHAR U+0389
ENCODING 905
SWIDTH 1090 0
DWIDTH 12 0
BBX 10 7 0 0
BITMAP
5040
9040
1040
1540
1040
1040
1040
ENDCHAR
STARTCHAR U+038A
ENCODING 906
SWIDTH 1090 0
DWIDTH 12 0
BBX 9 7 0 0
BITMAP
4A80
8200
0200
0200
0200
0200
0A80
ENDCHAR
STARTCHAR U+038C
ENCODING 908
SWIDTH 1090 0
DWIDTH 12 0
BBX 10 7 0 0
BITMAP
4A80
9040
1040
1040
1040
1040
0A80
ENDCHAR
STARTCHAR U+038E
ENCODING 910
SWIDTH 1090 0
DWIDTH 12 0
BBX 10 7 0 0
BITMAP
5040
8880
0500
0200
0200
0200
0200
ENDCHAR
STARTCHAR U+038F
ENCODING 911
SWIDTH 1090 0
DWIDTH 12 0
BBX 9 7 0 0
BITMAP
4400
9100
2080
2080
1100
0A00
2A80
ENDCHAR
STARTCHAR U+0390
ENCODING 912
SWIDTH 1090 0
DWIDTH 12 0
BBX 6 7 1 0
BITMAP
A8
40
20
20
20
20
14
ENDCHAR
STARTCHAR U+0391
ENCODING 913
SWIDTH 1090 0
DWIDTH 12 0
BBX 9 7 0 0
BITMAP
1400
2200
4100
8080
AA80
8080
8080
ENDCHAR
STARTCHAR U+0392
ENCODING 914
SWIDTH 1090 0
DWIDTH 12 0
BBX 9 7 0 0
BITMAP
AA00
4080
4080
5500
4080
4080
AA00
ENDCHAR
STARTCHAR U+0393
ENCODING 915
SWIDTH 1090 0
DWIDTH 12 0
BBX 9 7 0 0
BITMAP
AA80
4080
4000
4000
4000
4000
4000
ENDCHAR
STARTCHAR U+0394
ENCODING 916
SWIDTH 1090 0
DWIDTH 12 0
BBX 9 7 0 0
BITMAP
0800
1400
2200
4100
8080
8080
AA80
ENDCHAR
STARTCHAR U+0395
ENCODING 917
SWIDTH 1090 0
DWIDTH 12 0
BBX 9 7 0 0
BITMAP
AA80
8000
8000
AA00
8000
8000
AA80
ENDCHAR
STARTCHAR U+0396
ENCODING 918
SWIDTH 1090 0
DWIDTH 12 0
BBX 7 7 1 0
BITMAP
AA
04
08
10
20
40
AA
ENDCHAR
STARTCHAR U+0397
ENCODING 919
SWIDTH 1090 0
DWIDTH 12 0
BBX 9 7 0 0
BITMAP
8080
8080
8080
AA80
8080
8080
8080
ENDCHAR
STARTCHAR U+0398
ENCODING 920
SWIDTH 1090 0
DWIDTH 12 0
BBX 9 7 0 0
BITMAP
2A00
4100
8080
9480
8080
4100
2A00
ENDCHAR
STARTCHAR U+0399
ENCODING 921
SWIDTH 1090 0
DWIDTH 12 0
BBX 5 7 2 0
BITMAP
A8
20
20
20
20
20
A8
ENDCHAR
STARTCHAR U+039A
ENCODING 922
SWIDTH 1090 0
DWIDTH 12 0
BBX 9 7 0 0
BITMAP
8080
8200
8800
A000
8800
8200
8080
ENDCHAR
STARTCHAR U+039B
ENCODING 923
SWIDTH 1090 0
DWIDTH 12 0
BBX 9 7 0 0
BITMAP
0800
1400
2200
4100
8080
8080
8080
ENDCHAR
STARTCHAR U+039C
ENCODING 924
SWIDTH 1090 0
DWIDTH 12 0
BBX 9 7 0 0
BITMAP
8080
A280
9480
8880
8080
8080
8080
ENDCHAR
STARTCHAR U+039D
ENCODING 925
SWIDTH 1090 0
DWIDTH 12 0
BBX 9 7 0 0
BITMAP
8080
A080
9080
8880
8480
8280
8080
ENDCHAR
STARTCHAR U+039E
ENCODING 926
SWIDTH 1090 0
DWIDTH 12 0
BBX 9 7 0 0
BITMAP
AA80
8080
0000
2A00
0000
8080
AA80
ENDCHAR
STARTCHAR U+039F
ENCODING 927
SWIDTH 1090 0
DWIDTH 12 0
BBX 9 7 0 0
BITMAP
5500
8080
8080
8080
8080
8080
5500
ENDCHAR
STARTCHAR U+03A0
ENCODING 928
SWIDTH 1090 0
DWIDTH 12 0
BBX 9 7 0 0
BITMAP
AA80
4100
4100
4100
4100
4100
4100
ENDCHAR
STARTCHAR U+03A1
ENCODING 929
SWIDTH 1090 0
DWIDTH 12 0
BBX 9 7 0 0
BITMAP
AA00
8080
8080
AA00
8000
8000
8000
ENDCHAR
STARTCHAR U+03A3
ENCODING 931
SWIDTH 1090 0
DWIDTH 12 0
BBX 9 7 0 0
BITMAP
AA80
4080
2000
1000
2000
4080
AA80
ENDCHAR
STARTCHAR U+03A4
ENCODING 932
SWIDTH 1090 0
DWIDTH 12 0
BBX 9 7 0 0
BITMAP
AA80
0800
0800
0800
0800
0800
0800
ENDCHAR
STARTCHAR U+03A5
ENCODING 933
SWIDTH 1090 0
DWIDTH 12 0
BBX 9 7 0 0
BITMAP
8080
4100
2200
1400
0800
0800
0800
ENDCHAR
STARTCHAR U+03A6
ENCODING 934
SWIDTH 1090 0
DWIDTH 12 0
BBX 9 7 0 0
BITMAP
2A00
0800
5500
8080
5500
0800
2A00
ENDCHAR
STARTCHAR U+03A7
ENCODING 935
SWIDTH 1090 0
DWIDTH 12 0
BBX 7 7 1 0
BITMAP
82
44
28
10
28
44
82
ENDCHAR
STARTCHAR U+03A8
ENCODING 936
SWIDTH 1090 0
DWIDTH 12 0
BBX 9 7 0 0
BITMAP
1400
8880
8880
8880
5500
0800
2A00
ENDCHAR
STARTCHAR U+03A9
ENCODING 937
SWIDTH 1090 0
DWIDTH 12 0
BBX 9 7 0 0
BITMAP
1400
4100
8080
8080
4100
2200
A280
ENDCHAR
STARTCHAR U+03AA
ENCODING 938
SWIDTH 1090 0
DWIDTH 12 0
BBX 5 7 2 0
BITMAP
88
00
A8
20
20
20
A8
ENDCHAR
STARTCHAR U+03AB
ENCODING 939
SWIDTH 1090 0
DWIDTH 12 0
BBX 7 7 1 0
BITMAP
44
00
82
44
28
10
10
ENDCHAR
STARTCHAR U+03AC
ENCODING 940
SWIDTH 1090 0
DWIDTH 12 0
BBX 9 7 0 0
BITMAP
0100
0200
2880
8500
8200
8500
2880
ENDCHAR
STARTCHAR U+03AD
ENCODING 941
SWIDTH 1090 0
DWIDTH 12 0
BBX 8 7 1 0
BITMAP
08
10
55
80
50
80
55
ENDCHAR
STARTCHAR U+03AE
ENCODING 942
SWIDTH 1090 0
DWIDTH 12 0
BBX 8 8 1 -1
BITMAP
08
10
AA
81
81
81
81
01
ENDCHAR
STARTCHAR U+03AF
ENCODING 943
SWIDTH 1090 0
DWIDTH 12 0
BBX 5 7 2 0
BITMAP
40
80
40
40
40
40
28
ENDCHAR
STARTCHAR U+03B0
ENCODING 944
SWIDTH 1090 0
DWIDTH 12 0
BBX 9 7 0 0
BITMAP
0400
0800
8100
4080
4080
4100
1400
ENDCHAR
STARTCHAR U+03B1
ENCODING 945
SWIDTH 1090 0
DWIDTH 12 0
BBX 9 5 0 0
BITMAP
2880
8500
8200
8500
2880
ENDCHAR
STARTCHAR U+03B2
ENCODING 946
SWIDTH 1090 0
DWIDTH 12 0
BBX 8 8 0 -1
BITMAP
54
82
82
88
82
81
8A
80
ENDCHAR
STARTCHAR U+03B3
ENCODING 947
SWIDTH 1090 0
DWIDTH 12 0
BBX 9 6 0 -1
BITMAP
A080
1100
0A00
0400
0400
0400
ENDCHAR
STARTCHAR U+03B4
ENCODING 948
SWIDTH 1090 0
DWIDTH 12 0
BBX 9 7 0 0
BITMAP
1500
0800
2400
8100
8080
8080
5400
ENDCHAR
STARTCHAR U+03B5
ENCODING 949
SWIDTH 1090 0
DWIDTH 12 0
BBX 8 5 1 0
BITMAP
55
80
50
80
55
ENDCHAR
STARTCHAR U+03B6
ENCODING 950
SWIDTH 1090 0
DWIDTH 12 0
BBX 7 8 1 -1
BITMAP
A8
08
20
40
80
80
2A
02
ENDCHAR
STARTCHAR U+03B7
ENCODING 951
SWIDTH 1090 0
DWIDTH 12 0
BBX 8 6 1 -1
BITMAP
AA
81
81
81
81
01
ENDCHAR
STARTCHAR U+03B8
ENCODING 952
SWIDTH 1090 0
DWIDTH 12 0
BBX 9 7 0 0
BITMAP
1400
2200
1200
8A80
4200
4200
2800
ENDCHAR
STARTCHAR U+03B9
ENCODING 953
SWIDTH 1090 0
DWIDTH 12 0
BBX 4 5 3 0
BITMAP
80
80
80
80
50
ENDCHAR
STARTCHAR U+03BA
ENCODING 954
SWIDTH 1090 0
DWIDTH 12 0
BBX 7 5 1 0
BITMAP
82
88
A0
88
82
ENDCHAR
STARTCHAR U+03BB
ENCODING 955
SWIDTH 1090 0
DWIDTH 12 0
BBX 9 7 0 0
BITMAP
2000
1000
0800
1400
2200
4100
8080
ENDCHAR
STARTCHAR U+03BC
ENCODING 956
SWIDTH 1090 0
DWIDTH 12 0
BBX 9 7 0 -2
BITMAP
4100
4100
4100
4100
5480
4000
8000
ENDCHAR
STARTCHAR U+03BD
ENCODING 957
SWIDTH 1090 0
DWIDTH 12 0
BBX 9 5 0 0
BITMAP
8080
2080
1100
0A00
0800
ENDCHAR
STARTCHAR U+03BE
ENCODING 958
SWIDTH 1090 0
DWIDTH 12 0
BBX 7 8 1 -1
BITMAP
AA
20
40
28
80
80
2A
02
ENDCHAR
STARTCHAR U+03BF
ENCODING 959
SWIDTH 1090 0
DWIDTH 12 0
BBX 9 5 0 0
BITMAP
5500
8080
8080
8080
5500
ENDCHAR
STARTCHAR U+03C0
ENCODING 960
SWIDTH 1090 0
DWIDTH 12 0
BBX 9 5 0 0
BITMAP
AA80
4100
4100
4100
4100
ENDCHAR
STARTCHAR U+03C1
ENCODING 961
SWIDTH 1090 0
DWIDTH 12 0
BBX 8 7 0 -2
BITMAP
AA
81
81
81
AA
80
80
ENDCHAR
STARTCHAR U+03C2
ENCODING 962
SWIDTH 1090 0
DWIDTH 12 0
BBX 8 7 0 -2
BITMAP
14
41
80
80
2A
01
02
ENDCHAR
STARTCHAR U+03C3
ENCODING 963
SWIDTH 1090 0
DWIDTH 12 0
BBX 8 5 1 0
BITMAP
55
84
82
82
54
ENDCHAR
STARTCHAR U+03C4
ENCODING 964
SWIDTH 1090 0
DWIDTH 12 0
BBX 8 5 0 0
BITMAP
55
88
08
08
04
ENDCHAR
STARTCHAR U+03C5
ENCODING 965
SWIDTH 1090 0
DWIDTH 12 0
BBX 9 5 0 0
BITMAP
8100
4080
4080
4100
1400
ENDCHAR
STARTCHAR U+03C6
ENCODING 966
SWIDTH 1090 0
DWIDTH 12 0
BBX 9 8 0 -1
BITMAP
4500
8880
8880
8880
2A00
0800
0800
0800
ENDCHAR
STARTCHAR U+03C7
ENCODING 967
SWIDTH 1090 0
DWIDTH 12 0
BBX 7 6 1 -1
BITMAP
84
28
10
28
44
82
ENDCHAR
STARTCHAR U+03C8
ENCODING 968
SWIDTH 1090 0
DWIDTH 12 0
BBX 9 7 0 0
BITMAP
8880
8880
8880
8880
5500
0800
2A00
ENDCHAR
STARTCHAR U+03C9
ENCODING 969
SWIDTH 1090 0
DWIDTH 12 0
BBX 9 5 0 0
BITMAP
4100
8080
8880
8880
2200
ENDCHAR
STARTCHAR U+03CA
ENCODING 970
SWIDTH 1090 0
DWIDTH 12 0
BBX 6 7 1 0
BITMAP
88
00
20
20
20
20
14
ENDCHAR
STARTCHAR U+03CB
ENCODING 971
SWIDTH 1090 0
DWIDTH 12 0
BBX 9 7 0 0
BITMAP
2200
0000
8100
4080
4080
4100
1400
ENDCHAR
STARTCHAR U+03CC
ENCODING 972
SWIDTH 1090 0
DWIDTH 12 0
BBX 9 7 0 0
BITMAP
0400
0800
5500
8080
8080
8080
5500
ENDCHAR
STARTCHAR U+03CD
ENCODING 973
SWIDTH 1090 0
DWIDTH 12 0
BBX 9 7 0 0
BITMAP
0400
0800
8100
4080
4080
4100
1400
ENDCHAR
STARTCHAR U+03CE
ENCODING 974
SWIDTH 1090 0
DWIDTH 12 0
BBX 9 7 0 0
BITMAP
0400
0800
4100
8080
8880
8880
2200
ENDCHAR
STARTCHAR U+03CF
ENCODING 975
SWIDTH 1090 0
DWIDTH 12 0
BBX 9 8 0 -1
BITMAP
8080
8200
8800
A000
8800
8200
8080
0500
ENDCHAR
STARTCHAR U+03D7
ENCODING 983
SWIDTH 1090 0
DWIDTH 12 0
BBX 7 6 1 -1
BITMAP
82
88
A0
88
82
14
ENDCHAR
STARTCHAR U+0401
ENCODING 1025
SWIDTH 1090 0
DWIDTH 12 0
BBX 9 7 0 0
BITMAP
2200
0000
AA80
8000
AA00
8000
AA80
ENDCHAR
STARTCHAR U+0402
ENCODING 1026
SWIDTH 1090 0
DWIDTH 12 0
BBX 9 7 0 0
BITMAP
AA00
2000
2000
2A00
2080
2080
2200
ENDCHAR
STARTCHAR U+0404
ENCODING 1028
SWIDTH 1090 0
DWIDTH 12 0
BBX 8 7 0 0
BITMAP
15
40
80
AA
80
40
15
ENDCHAR
STARTCHAR U+0406
ENCODING 1030
SWIDTH 1090 0
DWIDTH 12 0
BBX 5 7 2 0
BITMAP
A8
20
20
20
20
20
A8
ENDCHAR
STARTCHAR U+0407
ENCODING 1031
SWIDTH 1090 0
DWIDTH 12 0
BBX 5 7 2 0
BITMAP
88
00
A8
20
20
20
A8
ENDCHAR
STARTCHAR U+0408
ENCODING 1032
SWIDTH 1090 0
DWIDTH 12 0
BBX 8 7 0 0
BITMAP
15
02
02
02
82
82
54
ENDCHAR
STARTCHAR U+0409
ENCODING 1033
SWIDTH 1090 0
DWIDTH 12 0
BBX 9 7 0 0
BITMAP
2800
4800
4800
4A00
4880
4880
8A00
ENDCHAR
STARTCHAR U+040A
ENCODING 1034
SWIDTH 1090 0
DWIDTH 12 0
BBX 9 7 0 0
BITMAP
8800
8800
8800
AA00
8880
8880
8A00
ENDCHAR
STARTCHAR U+040B
ENCODING 1035
SWIDTH 1090 0
DWIDTH 12 0
BBX 9 7 0 0
BITMAP
AA00
2000
2000
2A00
2080
2080
2080
ENDCHAR
STARTCHAR U+040E
ENCODING 1038
SWIDTH 1090 0
DWIDTH 12 0
BBX 7 7 1 0
BITMAP
82
28
82
44
28
10
40
ENDCHAR
STARTCHAR U+040F
ENCODING 1039
SWIDTH 1090 0
DWIDTH 12 0
BBX 9 8 0 -1
BITMAP
8080
8080
8080
8080
8080
8080
AA80
0800
ENDCHAR
STARTCHAR U+0410
ENCODING 1040
SWIDTH 1090 0
DWIDTH 12 0
BBX 9 7 0 0
BITMAP
1400
2200
4100
8080
AA80
8080
8080
ENDCHAR
STARTCHAR U+0411
ENCODING 1041
SWIDTH 1090 0
DWIDTH 12 0
BBX 9 7 0 0
BITMAP
AA80
8000
8000
AA00
8080
8080
AA00
ENDCHAR
STARTCHAR U+0412
ENCODING 1042
SWIDTH 1090 0
DWIDTH 12 0
BBX 9 7 0 0
BITMAP
AA00
8080
8080
AA00
8080
8080
AA00
ENDCHAR
STARTCHAR U+0413
ENCODING 1043
SWIDTH 1090 0
DWIDTH 12 0
BBX 9 7 0 0
BITMAP
AA80
8000
8000
8000
8000
8000
8000
ENDCHAR
STARTCHAR U+0414
ENCODING 1044
SWIDTH 1090 0
DWIDTH 12 0
BBX 9 8 0 -1
BITMAP
1500
1100
2100
2100
2100
4100
AA80
8080
ENDCHAR
STARTCHAR U+0415
ENCODING 1045
SWIDTH 1090 0
DWIDTH 12 0
BBX 9 7 0 0
BITMAP
AA80
8000
8000
AA00
8000
8000
AA80
ENDCHAR
STARTCHAR U+0416
ENCODING 1046
SWIDTH 1090 0
DWIDTH 12 0
BBX 9 7 0 0
BITMAP
8880
4900
2A00
1400
2A00
4900
8880
ENDCHAR
STARTCHAR U+0417
ENCODING 1047
SWIDTH 1090 0
DWIDTH 12 0
BBX 9 7 0 0
BITMAP
5500
8080
0080
1500
0080
8080
5500
ENDCHAR
STARTCHAR U+0418
ENCODING 1048
SWIDTH 1090 0
DWIDTH 12 0
BBX 9 7 0 0
BITMAP
8080
8280
8480
8880
9080
A080
8080
ENDCHAR
STARTCHAR U+0419
ENCODING 1049
SWIDTH 1090 0
DWIDTH 12 0
BBX 9 7 0 0
BITMAP
4100
1400
8080
8280
8880
A080
8080
ENDCHAR
STARTCHAR U+041A
ENCODING 1050
SWIDTH 1090 0
DWIDTH 12 0
BBX 9 7 0 0
BITMAP
8080
8200
8800
A000
8800
8200
8080
ENDCHAR
STARTCHAR U+041B
ENCODING 1051
SWIDTH 1090 0
DWIDTH 12 0
BBX 9 7 0 0
BITMAP
2A80
4080
4080
4080
4080
4080
8080
ENDCHAR
STARTCHAR U+041C
ENCODING 1052
SWIDTH 1090 0
DWIDTH 12 0
BBX 9 7 0 0
BITMAP
8080
A280
9480
8880
8080
8080
8080
ENDCHAR
STARTCHAR U+041D
ENCODING 1053
SWIDTH 1090 0
DWIDTH 12 0
BBX 9 7 0 0
BITMAP
8080
8080
8080
AA80
8080
8080
8080
ENDCHAR
STARTCHAR U+041E
ENCODING 1054
SWIDTH 1090 0
DWIDTH 12 0
BBX 9 7 0 0
BITMAP
5500
8080
8080
8080
8080
8080
5500
ENDCHAR
STARTCHAR U+041F
ENCODING 1055
SWIDTH 1090 0
DWIDTH 12 0
BBX 9 7 0 0
BITMAP
AA80
8080
8080
8080
8080
8080
8080
ENDCHAR
STARTCHAR U+0420
ENCODING 1056
SWIDTH 1090 0
DWIDTH 12 0
BBX 9 7 0 0
BITMAP
AA00
8080
8080
AA00
8000
8000
8000
ENDCHAR
STARTCHAR U+0421
ENCODING 1057
SWIDTH 1090 0
DWIDTH 12 0
BBX 9 7 0 0
BITMAP
5500
8080
8000
8000
8000
8080
5500
ENDCHAR
STARTCHAR U+0422
ENCODING 1058
SWIDTH 1090 0
DWIDTH 12 0
BBX 9 7 0 0
BITMAP
AA80
0800
0800
0800
0800
0800
0800
ENDCHAR
STARTCHAR U+0423
ENCODING 1059
SWIDTH 1090 0
DWIDTH 12 0
BBX 9 7 0 0
BITMAP
8080
4100
2200
1400
0800
1000
4000
ENDCHAR
STARTCHAR U+0424
ENCODING 1060
SWIDTH 1090 0
DWIDTH 12 0
BBX 9 8 0 -1
BITMAP
0800
5500
8880
8880
8880
8880
5500
0800
ENDCHAR
STARTCHAR U+0425
ENCODING 1061
SWIDTH 1090 0
DWIDTH 12 0
BBX 9 7 0 0
BITMAP
8080
4100
2200
0800
2200
4100
8080
ENDCHAR
STARTCHAR U+0426
ENCODING 1062
SWIDTH 1090 0
DWIDTH 12 0
BBX 9 8 0 -1
BITMAP
8200
8200
8200
8200
8200
8200
AA80
0080
ENDCHAR
STARTCHAR U+0427
ENCODING 1063
SWIDTH 1090 0
DWIDTH 12 0
BBX 9 7 0 0
BITMAP
8080
8080
8080
2A80
0080
0080
0080
ENDCHAR
STARTCHAR U+0428
ENCODING 1064
SWIDTH 1090 0
DWIDTH 12 0
BBX 9 7 0 0
BITMAP
8880
8880
8880
8880
8880
8880
AA80
ENDCHAR
STARTCHAR U+0429
ENCODING 1065
SWIDTH 1090 0
DWIDTH 12 0
BBX 9 8 0 -1
BITMAP
8880
8880
8880
8880
8880
8880
AA80
0080
ENDCHAR
STARTCHAR U+042A
ENCODING 1066
SWIDTH 1090 0
DWIDTH 12 0
BBX 9 7 0 0
BITMAP
A000
2000
2000
2A00
2080
2080
2A00
ENDCHAR
STARTCHAR U+042B
ENCODING 1067
SWIDTH 1090 0
DWIDTH 12 0
BBX 9 7 0 0
BITMAP
8080
8080
8080
A880
8480
8480
A880
ENDCHAR
STARTCHAR U+042C
ENCODING 1068
SWIDTH 1090 0
DWIDTH 12 0
BBX 9 7 0 0
BITMAP
8000
8000
8000
AA00
8080
8080
AA00
ENDCHAR
STARTCHAR U+042D
ENCODING 1069
SWIDTH 1090 0
DWIDTH 12 0
BBX 8 7 1 0
BITMAP
A8
02
01
55
01
02
A8
ENDCHAR
STARTCHAR U+042E
ENCODING 1070
SWIDTH 1090 0
DWIDTH 12 0
BBX 9 7 0 0
BITMAP
8500
8880
8880
A880
8880
8880
8500
ENDCHAR
STARTCHAR U+042F
ENCODING 1071
SWIDTH 1090 0
DWIDTH 12 0
BBX 9 7 0 0
BITMAP
2A80
8080
8080
2A80
2080
4080
8080
ENDCHAR
STARTCHAR U+0430
ENCODING 1072
SWIDTH 1090 0
DWIDTH 12 0
BBX 9 5 0 0
BITMAP
2A00
0100
5500
8100
5480
ENDCHAR
STARTCHAR U+0431
ENCODING 1073
SWIDTH 1090 0
DWIDTH 12 0
BBX 9 7 0 0
BITMAP
1500
4000
9500
A080
8080
8080
5500
ENDCHAR
STARTCHAR U+0432
ENCODING 1074
SWIDTH 1090 0
DWIDTH 12 0
BBX 8 5 0 0
BITMAP
AA
81
AA
81
AA
ENDCHAR
STARTCHAR U+0433
ENCODING 1075
SWIDTH 1090 0
DWIDTH 12 0
BBX 7 5 1 0
BITMAP
AA
80
80
80
80
ENDCHAR
STARTCHAR U+0434
ENCODING 1076
SWIDTH 1090 0
DWIDTH 12 0
BBX 9 6 0 -1
BITMAP
1500
1100
2100
4100
AA80
8080
ENDCHAR
STARTCHAR U+0435
ENCODING 1077
SWIDTH 1090 0
DWIDTH 12 0
BBX 9 5 0 0
BITMAP
5500
8080
AA80
8000
5500
ENDCHAR
STARTCHAR U+0436
ENCODING 1078
SWIDTH 1090 0
DWIDTH 12 0
BBX 9 5 0 0
BITMAP
8880
4900
2A00
4900
8880
ENDCHAR
STARTCHAR U+0437
ENCODING 1079
SWIDTH 1090 0
DWIDTH 12 0
BBX 9 5 0 0
BITMAP
5500
8080
0500
8080
5500
ENDCHAR
STARTCHAR U+0438
ENCODING 1080
SWIDTH 1090 0
DWIDTH 12 0
BBX 9 5 0 0
BITMAP
8080
8280
8880
A080
8080
ENDCHAR
STARTCHAR U+0439
ENCODING 1081
SWIDTH 1090 0
DWIDTH 12 0
BBX 9 7 0 0
BITMAP
4100
1400
8080
8280
8880
A080
8080
ENDCHAR
STARTCHAR U+043A
ENCODING 1082
SWIDTH 1090 0
DWIDTH 12 0
BBX 9 5 0 0
BITMAP
8080
8200
A800
8200
8080
ENDCHAR
STARTCHAR U+043B
ENCODING 1083
SWIDTH 1090 0
DWIDTH 12 0
BBX 7 5 1 0
BITMAP
2A
42
42
42
82
ENDCHAR
STARTCHAR U+043C
ENCODING 1084
SWIDTH 1090 0
DWIDTH 12 0
BBX 9 5 0 0
BITMAP
8080
A280
9480
8880
8080
ENDCHAR
STARTCHAR U+043D
ENCODING 1085
SWIDTH 1090 0
DWIDTH 12 0
BBX 9 5 0 0
BITMAP
8080
8080
AA80
8080
8080
ENDCHAR
STARTCHAR U+043E
ENCODING 1086
SWIDTH 1090 0
DWIDTH 12 0
BBX 9 5 0 0
BITMAP
5500
8080
8080
8080
5500
ENDCHAR
STARTCHAR U+043F
ENCODING 1087
SWIDTH 1090 0
DWIDTH 12 0
BBX 9 5 0 0
BITMAP
AA80
8080
8080
8080
8080
ENDCHAR
STARTCHAR U+0440
ENCODING 1088
SWIDTH 1090 0
DWIDTH 12 0
BBX 8 7 0 -2
BITMAP
AA
81
81
81
AA
80
80
ENDCHAR
STARTCHAR U+0441
ENCODING 1089
SWIDTH 1090 0
DWIDTH 12 0
BBX 8 5 0 0
BITMAP
55
80
80
80
55
ENDCHAR
STARTCHAR U+0442
ENCODING 1090
SWIDTH 1090 0
DWIDTH 12 0
BBX 9 5 0 0
BITMAP
AA80
0800
0800
0800
0800
ENDCHAR
STARTCHAR U+0443
ENCODING 1091
SWIDTH 1090 0
DWIDTH 12 0
BBX 9 7 0 -2
BITMAP
8080
4100
2200
1400
0800
1000
2000
ENDCHAR
STARTCHAR U+0444
ENCODING 1092
SWIDTH 1090 0
DWIDTH 12 0
BBX 9 7 0 -1
BITMAP
0800
5500
8880
8880
8880
5500
0800
ENDCHAR
STARTCHAR U+0445
ENCODING 1093
SWIDTH 1090 0
DWIDTH 12 0
BBX 7 5 1 0
BITMAP
82
44
10
44
82
ENDCHAR
STARTCHAR U+0446
ENCODING 1094
SWIDTH 1090 0
DWIDTH 12 0
BBX 9 6 0 -1
BITMAP
8200
8200
8200
8200
AA80
0080
ENDCHAR
STARTCHAR U+0447
ENCODING 1095
SWIDTH 1090 0
DWIDTH 12 0
BBX 8 5 0 0
BITMAP
81
81
55
01
01
ENDCHAR
STARTCHAR U+0448
ENCODING 1096
SWIDTH 1090 0
DWIDTH 12 0
BBX 9 5 0 0
BITMAP
8880
8880
8880
8880
AA80
ENDCHAR
STARTCHAR U+0449
ENCODING 1097
SWIDTH 1090 0
DWIDTH 12 0
BBX 9 6 0 -1
BITMAP
8880
8880
8880
8880
AA80
0080
ENDCHAR
STARTCHAR U+044A
ENCODING 1098
SWIDTH 1090 0
DWIDTH 12 0
BBX 8 5 0 0
BITMAP
A0
20
2A
21
2A
ENDCHAR
STARTCHAR U+044B
ENCODING 1099
SWIDTH 1090 0
DWIDTH 12 0
BBX 9 5 0 0
BITMAP
8080
8080
A880
8480
A880
ENDCHAR
STARTCHAR U+044C
ENCODING 1100
SWIDTH 1090 0
DWIDTH 12 0
BBX 8 5 0 0
BITMAP
80
80
AA
81
AA
ENDCHAR
STARTCHAR U+044D
ENCODING 1101
SWIDTH 1090 0
DWIDTH 12 0
BBX 7 5 1 0
BITMAP
A8
02
2A
02
A8
ENDCHAR
STARTCHAR U+044E
ENCODING 1102
SWIDTH 1090 0
DWIDTH 12 0
BBX 9 5 0 0
BITMAP
8500
8880
A880
8880
8500
ENDCHAR
STARTCHAR U+044F
ENCODING 1103
SWIDTH 1090 0
DWIDTH 12 0
BBX 8 5 1 0
BITMAP
55
81
55
41
81
ENDCHAR
STARTCHAR U+0451
ENCODING 1105
SWIDTH 1090 0
DWIDTH 12 0
BBX 9 7 0 0
BITMAP
2200
0000
5500
8080
AA80
8000
5500
ENDCHAR
STARTCHAR U+0452
ENCODING 1106
SWIDTH 1090 0
DWIDTH 12 0
BBX 8 8 0 -1
BITMAP
40
E0
54
41
41
41
41
04
ENDCHAR
STARTCHAR U+0454
ENCODING 1108
SWIDTH 1090 0
DWIDTH 12 0
BBX 7 5 1 0
BITMAP
2A
80
A8
80
2A
ENDCHAR
STARTCHAR U+0456
ENCODING 1110
SWIDTH 1090 0
DWIDTH 12 0
BBX 5 7 1 0
BITMAP
20
00
A0
20
20
20
A8
ENDCHAR
STARTCHAR U+0457
ENCODING 1111
SWIDTH 1090 0
DWIDTH 12 0
BBX 5 7 1 0
BITMAP
88
00
A0
20
20
20
A8
ENDCHAR
STARTCHAR U+0458
ENCODING 1112
SWIDTH 1090 0
DWIDTH 12 0
BBX 6 8 1 -1
BITMAP
04
00
14
04
04
04
04
A8
ENDCHAR
STARTCHAR U+0459
ENCODING 1113
SWIDTH 1090 0
DWIDTH 12 0
BBX 9 5 0 0
BITMAP
2800
4800
4A00
4880
8A00
ENDCHAR
STARTCHAR U+045A
ENCODING 1114
SWIDTH 1090 0
DWIDTH 12 0
BBX 9 5 0 0
BITMAP
8800
8800
AA00
8880
8A00
ENDCHAR
STARTCHAR U+045B
ENCODING 1115
SWIDTH 1090 0
DWIDTH 12 0
BBX 9 7 0 0
BITMAP
4000
A000
5500
4080
4080
4080
4080
ENDCHAR
STARTCHAR U+045E
ENCODING 1118
SWIDTH 1090 0
DWIDTH 12 0
BBX 9 9 0 -2
BITMAP
4100
1400
8080
4100
2200
1400
0800
1000
2000
ENDCHAR
STARTCHAR U+045F
ENCODING 1119
SWIDTH 1090 0
DWIDTH 12 0
BBX 7 6 1 -1
BITMAP
82
82
82
82
AA
10
ENDCHAR
STARTCHAR U+0490
ENCODING 1168
SWIDTH 1090 0
DWIDTH 12 0
BBX 9 7 0 0
BITMAP
0080
AA80
8000
8000
8000
8000
8000
ENDCHAR
STARTCHAR U+0491
ENCODING 1169
SWIDTH 1090 0
DWIDTH 12 0
BBX 7 6 1 0
BITMAP
02
AA
80
80
80
80
ENDCHAR
STARTCHAR U+0492
ENCODING 1170
SWIDTH 1090 0
DWIDTH 12 0
BBX 9 7 0 0
BITMAP
AA80
8000
8000
AA00
8000
8000
8000
ENDCHAR
STARTCHAR U+0493
ENCODING 1171
SWIDTH 1090 0
DWIDTH 12 0
BBX 7 5 1 0
BITMAP
AA
80
A8
80
80
ENDCHAR
STARTCHAR U+0496
ENCODING 1174
SWIDTH 1090 0
DWIDTH 12 0
BBX 9 8 0 -1
BITMAP
8880
4900
2A00
1400
2A00
4900
8880
0080
ENDCHAR
STARTCHAR U+0497
ENCODING 1175
SWIDTH 1090 0
DWIDTH 12 0
BBX 9 6 0 -1
BITMAP
8880
4900
2A00
4900
8880
0080
ENDCHAR
STARTCHAR U+049A
ENCODING 1178
SWIDTH 1090 0
DWIDTH 12 0
BBX 9 8 0 -1
BITMAP
8080
8200
8800
A000
8800
8200
8080
0080
ENDCHAR
STARTCHAR U+049B
ENCODING 1179
SWIDTH 1090 0
DWIDTH 12 0
BBX 9 6 0 -1
BITMAP
8080
8200
A800
8200
8080
0080
ENDCHAR
STARTCHAR U+04A2
ENCODING 1186
SWIDTH 1090 0
DWIDTH 12 0
BBX 9 8 0 -1
BITMAP
8200
8200
8200
AA00
8200
8200
8280
0080
ENDCHAR
STARTCHAR U+04A3
ENCODING 1187
SWIDTH 1090 0
DWIDTH 12 0
BBX 9 6 0 -1
BITMAP
8200
8200
AA00
8200
8280
0080
ENDCHAR
STARTCHAR U+04AE
ENCODING 1198
SWIDTH 1090 0
DWIDTH 12 0
BBX 9 7 0 0
BITMAP
8080
4100
2200
1400
0800
0800
0800
ENDCHAR
STARTCHAR U+04AF
ENCODING 1199
SWIDTH 1090 0
DWIDTH 12 0
BBX 9 7 0 -2
BITMAP
8080
4100
2200
1400
0800
0800
0800
ENDCHAR
STARTCHAR U+04B0
ENCODING 1200
SWIDTH 1090 0
DWIDTH 12 0
BBX 9 7 0 0
BITMAP
8080
4100
2200
5500
0800
0800
0800
ENDCHAR
STARTCHAR U+04B1
ENCODING 1201
SWIDTH 1090 0
DWIDTH 12 0
BBX 9 7 0 -2
BITMAP
8080
4100
2200
1400
0800
2A00
0800
ENDCHAR
STARTCHAR U+04B2
ENCODING 1202
SWIDTH 1090 0
DWIDTH 12 0
BBX 9 8 0 -1
BITMAP
8080
4100
2200
0800
2200
4100
8080
0080
ENDCHAR
STARTCHAR U+04B3
ENCODING 1203
SWIDTH 1090 0
DWIDTH 12 0
BBX 7 6 1 -1
BITMAP
82
44
10
44
82
02
ENDCHAR
STARTCHAR U+04B6
ENCODING 1206
SWIDTH 1090 0
DWIDTH 12 0
BBX 9 8 0 -1
BITMAP
8200
8200
8200
2A00
0200
0200
0280
0080
ENDCHAR
STARTCHAR U+04B7
ENCODING 1207
SWIDTH 1090 0
DWIDTH 12 0
BBX 8 6 0 -1
BITMAP
84
84
54
04
05
01
ENDCHAR
STARTCHAR U+04BA
ENCODING 1210
SWIDTH 1090 0
DWIDTH 12 0
BBX 8 7 0 0
BITMAP
80
80
80
AA
81
81
81
ENDCHAR
STARTCHAR U+04BB
ENCODING 1211
SWIDTH 1090 0
DWIDTH 12 0
BBX 8 7 0 0
BITMAP
80
80
AA
81
81
81
81
ENDCHAR
STARTCHAR U+04D8
ENCODING 1240
SWIDTH 1090 0
DWIDTH 12 0
BBX 9 7 0 0
BITMAP
5500
0080
0080
AA80
8080
8080
5500
ENDCHAR
STARTCHAR U+04D9
ENCODING 1241
SWIDTH 1090 0
DWIDTH 12 0
BBX 9 5 0 0
BITMAP
5500
0080
AA80
8080
5500
ENDCHAR
STARTCHAR U+04E2
ENCODING 1250
SWIDTH 1090 0
DWIDTH 12 0
BBX 9 7 0 0
BITMAP
2A00
0000
8080
8280
8880
A080
8080
ENDCHAR
STARTCHAR U+04E3
ENCODING 1251
SWIDTH 1090 0
DWIDTH 12 0
BBX 9 7 0 0
BITMAP
2A00
0000
8080
8280
8880
A080
8080
ENDCHAR
STARTCHAR U+04E8
ENCODING 1256
SWIDTH 1090 0
DWIDTH 12 0
BBX 9 7 0 0
BITMAP
5500
8080
8080
AA80
8080
8080
5500
ENDCHAR
STARTCHAR U+04E9
ENCODING 1257
SWIDTH 1090 0
DWIDTH 12 0
BBX 9 5 0 0
BITMAP
5500
8080
AA80
8080
5500
ENDCHAR
STARTCHAR U+04EE
ENCODING 1262
SWIDTH 1090 0
DWIDTH 12 0
BBX 7 7 1 0
BITMAP
54
00
82
44
28
10
40
ENDCHAR
STARTCHAR U+04EF
ENCODING 1263
SWIDTH 1090 0
DWIDTH 12 0
BBX 9 9 0 -2
BITMAP
2A00
0000
8080
4100
2200
1400
0800
0800
0800
ENDCHAR
STARTCHAR U+05D0
ENCODING 1488
SWIDTH 1090 0
DWIDTH 12 0
BBX 9 7 0 0
BITMAP
4080
2080
1080
4900
8400
8200
8100
ENDCHAR
STARTCHAR U+05D1
ENCODING 1489
SWIDTH 1090 0
DWIDTH 12 0
BBX 9 7 0 0
BITMAP
5400
0100
0100
0100
0100
0100
AA80
ENDCHAR
STARTCHAR U+05D2
ENCODING 1490
SWIDTH 1090 0
DWIDTH 12 0
BBX 7 7 1 0
BITMAP
28
02
02
02
2A
82
82
ENDCHAR
STARTCHAR U+05D3
ENCODING 1491
SWIDTH 1090 0
DWIDTH 12 0
BBX 9 7 0 0
BITMAP
AA80
0100
0100
0100
0100
0100
0100
ENDCHAR
STARTCHAR U+05D4
ENCODING 1492
SWIDTH 1090 0
DWIDTH 12 0
BBX 9 7 0 0
BITMAP
AA00
0080
0080
8080
8080
8080
8080
ENDCHAR
STARTCHAR U+05D5
ENCODING 1493
SWIDTH 1090 0
DWIDTH 12 0
BBX 4 7 2 0
BITMAP
A0
10
10
10
10
10
10
ENDCHAR
STARTCHAR U+05D6
ENCODING 1494
SWIDTH 1090 0
DWIDTH 12 0
BBX 7 7 1 0
BITMAP
AA
10
08
08
08
08
08
ENDCHAR
STARTCHAR U+05D7
ENCODING 1495
SWIDTH 1090 0
DWIDTH 12 0
BBX 9 7 0 0
BITMAP
AA00
8080
8080
8080
8080
8080
8080
ENDCHAR
STARTCHAR U+05D8
ENCODING 1496
SWIDTH 1090 0
DWIDTH 12 0
BBX 9 7 0 0
BITMAP
8280
8480
8880
8080
8100
8200
A800
ENDCHAR
STARTCHAR U+05D9
ENCODING 1497
SWIDTH 1090 0
DWIDTH 12 0
BBX 4 4 3 3
BITMAP
A0
10
10
10
ENDCHAR
STARTCHAR U+05DA
ENCODING 1498
SWIDTH 1090 0
DWIDTH 12 0
BBX 8 8 0 -1
BITMAP
AA
01
01
01
01
01
01
01
ENDCHAR
STARTCHAR U+05DB
ENCODING 1499
SWIDTH 1090 0
DWIDTH 12 0
BBX 9 7 0 0
BITMAP
AA00
0080
0080
0080
0080
0080
AA00
ENDCHAR
STARTCHAR U+05DC
ENCODING 1500
SWIDTH 1090 0
DWIDTH 12 0
BBX 8 7 1 0
BITMAP
80
AA
01
02
04
08
10
ENDCHAR
STARTCHAR U+05DD
ENCODING 1501
SWIDTH 1090 0
DWIDTH 12 0
BBX 9 7 0 0
BITMAP
AA00
8080
8080
8080
8080
8080
AA80
ENDCHAR
STARTCHAR U+05DE
ENCODING 1502
SWIDTH 1090 0
DWIDTH 12 0
BBX 9 7 0 0
BITMAP
8280
4880
2080
4080
8080
8080
8280
ENDCHAR
STARTCHAR U+05DF
ENCODING 1503
SWIDTH 1090 0
DWIDTH 12 0
BBX 4 8 2 -1
BITMAP
A0
10
10
10
10
10
10
10
ENDCHAR
STARTCHAR U+05E0
ENCODING 1504
SWIDTH 1090 0
DWIDTH 12 0
BBX 5 7 2 0
BITMAP
A0
08
08
08
08
08
A0
ENDCHAR
STARTCHAR U+05E1
ENCODING 1505
SWIDTH 1090 0
DWIDTH 12 0
BBX 9 7 0 0
BITMAP
AA80
8080
8080
8080
4080
2100
1400
ENDCHAR
STARTCHAR U+05E2
ENCODING 1506
SWIDTH 1090 0
DWIDTH 12 0
BBX 9 7 0 0
BITMAP
2080
2080
2080
2080
2080
2100
AA00
ENDCHAR
STARTCHAR U+05E3
ENCODING 1507
SWIDTH 1090 0
DWIDTH 12 0
BBX 9 8 0 -1
BITMAP
AA00
8080
8080
A080
0080
0080
0080
0080
ENDCHAR
STARTCHAR U+05E4
ENCODING 1508
SWIDTH 1090 0
DWIDTH 12 0
BBX 9 7 0 0
BITMAP
AA00
8080
8080
A080
0080
0080
AA00
ENDCHAR
STARTCHAR U+05E5
ENCODING 1509
SWIDTH 1090 0
DWIDTH 12 0
BBX 9 8 0 -1
BITMAP
8080
8080
5500
2000
1000
0800
0400
0200
ENDCHAR
STARTCHAR U+05E6
ENCODING 1510
SWIDTH 1090 0
DWIDTH 12 0
BBX 8 7 1 0
BITMAP
81
41
22
14
08
04
AA
ENDCHAR
STARTCHAR U+05E7
ENCODING 1511
SWIDTH 1090 0
DWIDTH 12 0
BBX 9 8 0 -1
BITMAP
AA00
0080
8080
8080
8080
8A00
8000
8000
ENDCHAR
STARTCHAR U+05E8
ENCODING 1512
SWIDTH 1090 0
DWIDTH 12 0
BBX 9 7 0 0
BITMAP
AA00
0080
0080
0080
0080
0080
0080
ENDCHAR
STARTCHAR U+05E9
ENCODING 1513
SWIDTH 1090 0
DWIDTH 12 0
BBX 9 7 0 0
BITMAP
8880
8880
8880
8880
A100
8200
A800
ENDCHAR
STARTCHAR U+05EA
ENCODING 1514
SWIDTH 1090 0
DWIDTH 12 0
BBX 9 7 0 0
BITMAP
5500
4080
4080
4080
4080
2080
A080
ENDCHAR
STARTCHAR U+1E82
ENCODING 7810
SWIDTH 1090 0
DWIDTH 12 0
BBX 9 7 0 0
BITMAP
8480
8880
8080
8880
9480
A280
4100
ENDCHAR
STARTCHAR U+1E83
ENCODING 7811
SWIDTH 1090 0
DWIDTH 12 0
BBX 9 7 0 0
BITMAP
0400
0800
8080
8880
9480
A280
4100
ENDCHAR
STARTCHAR U+1E9E
ENCODING 7838
SWIDTH 1090 0
DWIDTH 12 0
BBX 8 7 0 0
BITMAP
55
81
81
8A
81
81
8A
ENDCHAR
STARTCHAR U+1E9F
ENCODING 7839
SWIDTH 1090 0
DWIDTH 12 0
BBX 9 7 0 0
BITMAP
0A00
1080
0800
2A00
8200
8200
5400
ENDCHAR
STARTCHAR U+1EF2
ENCODING 7922
SWIDTH 1090 0
DWIDTH 12 0
BBX 9 7 0 0
BITMAP
9080
4900
2200
1400
0800
0800
0800
ENDCHAR
STARTCHAR U+1EF3
ENCODING 7923
SWIDTH 1090 0
DWIDTH 12 0
BBX 9 9 0 -2
BITMAP
1000
0800
8080
4100
2200
1400
0800
1000
2000
ENDCHAR
STARTCHAR U+2013
ENCODING 8211
SWIDTH 1090 0
DWIDTH 12 0
BBX 7 1 1 3
BITMAP
AA
ENDCHAR
STARTCHAR U+2014
ENCODING 8212
SWIDTH 1090 0
DWIDTH 12 0
BBX 9 1 0 3
BITMAP
AA80
ENDCHAR
STARTCHAR U+2017
ENCODING 8215
SWIDTH 1090 0
DWIDTH 12 0
BBX 9 3 0 -2
BITMAP
AA80
0000
AA80
ENDCHAR
STARTCHAR U+2018
ENCODING 8216
SWIDTH 1090 0
DWIDTH 12 0
BBX 3 3 2 4
BITMAP
20
80
A0
ENDCHAR
STARTCHAR U+2019
ENCODING 8217
SWIDTH 1090 0
DWIDTH 12 0
BBX 3 3 2 4
BITMAP
A0
20
80
ENDCHAR
STARTCHAR U+201A
ENCODING 8218
SWIDTH 1090 0
DWIDTH 12 0
BBX 3 3 2 -2
BITMAP
A0
20
80
ENDCHAR
STARTCHAR U+201C
ENCODING 8220
SWIDTH 1090 0
DWIDTH 12 0
BBX 8 3 0 4
BITMAP
21
84
A5
ENDCHAR
STARTCHAR U+201D
ENCODING 8221
SWIDTH 1090 0
DWIDTH 12 0
BBX 8 3 0 4
BITMAP
A5
21
84
ENDCHAR
STARTCHAR U+201E
ENCODING 8222
SWIDTH 1090 0
DWIDTH 12 0
BBX 8 3 0 -2
BITMAP
A5
21
84
ENDCHAR
STARTCHAR U+2022
ENCODING 8226
SWIDTH 1090 0
DWIDTH 12 0
BBX 3 2 3 2
BITMAP
A0
A0
ENDCHAR
STARTCHAR U+2026
ENCODING 8230
SWIDTH 1090 0
DWIDTH 12 0
BBX 7 2 0 0
BITMAP
92
92
ENDCHAR
STARTCHAR U+2039
ENCODING 8249
SWIDTH 1090 0
DWIDTH 12 0
BBX 3 5 3 1
BITMAP
20
40
80
40
20
ENDCHAR
STARTCHAR U+203A
ENCODING 8250
SWIDTH 1090 0
DWIDTH 12 0
BBX 3 5 3 1
BITMAP
80
40
20
40
80
ENDCHAR
STARTCHAR U+203C
ENCODING 8252
SWIDTH 1090 0
DWIDTH 12 0
BBX 5 7 2 0
BITMAP
88
88
88
88
00
00
88
ENDCHAR
STARTCHAR U+207F
ENCODING 8319
SWIDTH 1090 0
DWIDTH 12 0
BBX 5 5 2 2
BITMAP
A0
88
88
88
88
ENDCHAR
STARTCHAR U+20A7
ENCODING 8359
SWIDTH 1090 0
DWIDTH 12 0
BBX 9 7 0 0
BITMAP
A000
8800
A000
8200
8A80
8200
8280
ENDCHAR
STARTCHAR U+20AA
ENCODING 8362
SWIDTH 1090 0
DWIDTH 12 0
BBX 10 7 0 0
BITMAP
5440
8240
9240
9240
9240
9040
8A80
ENDCHAR
STARTCHAR U+20AC
ENCODING 8364
SWIDTH 1090 0
DWIDTH 12 0
BBX 9 7 0 0
BITMAP
0A80
2000
AA00
4000
AA00
2000
0A80
ENDCHAR
STARTCHAR U+210C
ENCODING 8460
SWIDTH 1090 0
DWIDTH 12 0
BBX 9 7 0 0
BITMAP
8000
8000
5500
4080
4080
4080
4080
ENDCHAR
STARTCHAR U+2113
ENCODING 8467
SWIDTH 1090 0
DWIDTH 12 0
BBX 8 7 0 0
BITMAP
10
24
24
28
10
28
85
ENDCHAR
STARTCHAR U+2116
ENCODING 8470
SWIDTH 1090 0
DWIDTH 12 0
BBX 11 7 0 0
BITMAP
8440
84A0
A440
9400
84A0
8400
8400
ENDCHAR
STARTCHAR U+2122
ENCODING 8482
SWIDTH 1090 0
DWIDTH 12 0
BBX 9 4 0 3
BITMAP
A880
4A80
4880
4880
ENDCHAR
STARTCHAR U+2190
ENCODING 8592
SWIDTH 1090 0
DWIDTH 12 0
BBX 11 5 0 1
BITMAP
0800
2000
AAA0
2000
0800
ENDCHAR
STARTCHAR U+2191
ENCODING 8593
SWIDTH 1090 0
DWIDTH 12 0
BBX 9 7 1 0
BITMAP
0800
2A00
8880
0800
0800
0800
0800
ENDCHAR
STARTCHAR U+2192
ENCODING 8594
SWIDTH 1090 0
DWIDTH 12 0
BBX 11 5 0 1
BITMAP
0200
0080
AAA0
0080
0200
ENDCHAR
STARTCHAR U+2193
ENCODING 8595
SWIDTH 1090 0
DWIDTH 12 0
BBX 9 7 1 0
BITMAP
0800
0800
0800
0800
8880
2A00
0800
ENDCHAR
STARTCHAR U+2194
ENCODING 8596
SWIDTH 1090 0
DWIDTH 12 0
BBX 11 5 0 1
BITMAP
2080
4040
AAA0
4040
2080
ENDCHAR
STARTCHAR U+2195
ENCODING 8597
SWIDTH 1090 0
DWIDTH 12 0
BBX 9 7 1 0
BITMAP
0800
2A00
8880
0800
8880
2A00
0800
ENDCHAR
STARTCHAR U+21A8
ENCODING 8616
SWIDTH 1090 0
DWIDTH 12 0
BBX 9 8 1 -1
BITMAP
0800
2A00
8880
0800
8880
2A00
0800
AA80
ENDCHAR
STARTCHAR U+2205
ENCODING 8709
SWIDTH 1090 0
DWIDTH 12 0
BBX 9 7 0 0
BITMAP
1480
4100
8480
8880
9080
4100
9400
ENDCHAR
STARTCHAR U+2208
ENCODING 8712
SWIDTH 1090 0
DWIDTH 12 0
BBX 9 5 0 0
BITMAP
2A80
8000
AA80
8000
2A80
ENDCHAR
STARTCHAR U+2212
ENCODING 8722
SWIDTH 1090 0
DWIDTH 12 0
BBX 7 1 1 3
BITMAP
AA
ENDCHAR
STARTCHAR U+2219
ENCODING 8729
SWIDTH 1090 0
DWIDTH 12 0
BBX 2 2 3 2
BITMAP
C0
C0
ENDCHAR
STARTCHAR U+221A
ENCODING 8730
SWIDTH 1090 0
DWIDTH 12 0
BBX 9 7 0 0
BITMAP
0280
0200
0200
0200
A200
1200
0A00
ENDCHAR
STARTCHAR U+221E
ENCODING 8734
SWIDTH 1090 0
DWIDTH 12 0
BBX 9 4 0 1
BITMAP
5500
8880
8880
5500
ENDCHAR
STARTCHAR U+221F
ENCODING 8735
SWIDTH 1090 0
DWIDTH 12 0
BBX 9 5 0 1
BITMAP
8000
8000
8000
8000
AA80
ENDCHAR
STARTCHAR U+2229
ENCODING 8745
SWIDTH 1090 0
DWIDTH 12 0
BBX 7 7 1 0
BITMAP
54
82
82
82
82
82
82
ENDCHAR
STARTCHAR U+2248
ENCODING 8776
SWIDTH 1090 0
DWIDTH 12 0
BBX 8 5 0 1
BITMAP
51
8A
00
51
8A
ENDCHAR
STARTCHAR U+2261
ENCODING 8801
SWIDTH 1090 0
DWIDTH 12 0
BBX 9 5 0 1
BITMAP
AA80
0000
AA80
0000
AA80
ENDCHAR
STARTCHAR U+2264
ENCODING 8804
SWIDTH 1090 0
DWIDTH 12 0
BBX 7 7 1 0
BITMAP
04
10
40
10
04
00
AA
ENDCHAR
STARTCHAR U+2265
ENCODING 8805
SWIDTH 1090 0
DWIDTH 12 0
BBX 7 7 1 0
BITMAP
40
10
04
10
40
00
AA
ENDCHAR
STARTCHAR U+2302
ENCODING 8962
SWIDTH 1090 0
DWIDTH 12 0
BBX 9 5 0 0
BITMAP
0800
2200
8080
8080
AA80
ENDCHAR
STARTCHAR U+2310
ENCODING 8976
SWIDTH 1090 0
DWIDTH 12 0
BBX 9 3 0 1
BITMAP
AA80
8000
8000
ENDCHAR
STARTCHAR U+2320
ENCODING 8992
SWIDTH 1090 0
DWIDTH 12 0
BBX 5 9 4 -2
BITMAP
50
88
88
80
80
80
80
80
80
ENDCHAR
STARTCHAR U+2321
ENCODING 8993
SWIDTH 1090 0
DWIDTH 12 0
BBX 5 8 0 -2
BITMAP
08
08
08
08
08
88
88
50
ENDCHAR
STARTCHAR U+2500
ENCODING 9472
SWIDTH 1090 0
DWIDTH 12 0
BBX 11 1 0 2
BITMAP
AAA0
ENDCHAR
STARTCHAR U+2502
ENCODING 9474
SWIDTH 1090 0
DWIDTH 12 0
BBX 1 9 4 -2
BITMAP
80
80
80
80
80
80
80
80
80
ENDCHAR
STARTCHAR U+250C
ENCODING 9484
SWIDTH 1090 0
DWIDTH 12 0
BBX 7 5 4 -2
BITMAP
AA
80
80
80
80
ENDCHAR
STARTCHAR U+2510
ENCODING 9488
SWIDTH 1090 0
DWIDTH 12 0
BBX 5 5 0 -2
BITMAP
A8
08
08
08
08
ENDCHAR
STARTCHAR U+2514
ENCODING 9492
SWIDTH 1090 0
DWIDTH 12 0
BBX 7 5 4 2
BITMAP
80
80
80
80
AA
ENDCHAR
STARTCHAR U+2518
ENCODING 9496
SWIDTH 1090 0
DWIDTH 12 0
BBX 5 5 0 2
BITMAP
08
08
08
08
A8
ENDCHAR
STARTCHAR U+251C
ENCODING 9500
SWIDTH 1090 0
DWIDTH 12 0
BBX 7 9 4 -2
BITMAP
80
80
80
80
AA
80
80
80
80
ENDCHAR
STARTCHAR U+2524
ENCODING 9508
SWIDTH 1090 0
DWIDTH 12 0
BBX 5 9 0 -2
BITMAP
08
08
08
08
A8
08
08
08
08
ENDCHAR
STARTCHAR U+252C
ENCODING 9516
SWIDTH 1090 0
DWIDTH 12 0
BBX 11 5 0 -2
BITMAP
AAA0
0800
0800
0800
0800
ENDCHAR
STARTCHAR U+2534
ENCODING 9524
SWIDTH 1090 0
DWIDTH 12 0
BBX 11 5 0 2
BITMAP
0800
0800
0800
0800
AAA0
ENDCHAR
STARTCHAR U+253C
ENCODING 9532
SWIDTH 1090 0
DWIDTH 12 0
BBX 11 9 0 -2
BITMAP
0800
0800
0800
0800
AAA0
0800
0800
0800
0800
ENDCHAR
STARTCHAR U+2550
ENCODING 9552
SWIDTH 1090 0
DWIDTH 12 0
BBX 11 3 0 1
BITMAP
AAA0
0000
AAA0
ENDCHAR
STARTCHAR U+2551
ENCODING 9553
SWIDTH 1090 0
DWIDTH 12 0
BBX 5 9 2 -2
BITMAP
88
88
88
88
88
88
88
88
88
ENDCHAR
STARTCHAR U+2552
ENCODING 9554
SWIDTH 1090 0
DWIDTH 12 0
BBX 7 6 4 -2
BITMAP
AA
80
AA
80
80
80
ENDCHAR
STARTCHAR U+2553
ENCODING 9555
SWIDTH 1090 0
DWIDTH 12 0
BBX 9 5 2 -2
BITMAP
AA80
8800
8800
8800
8800
ENDCHAR
STARTCHAR U+2554
ENCODING 9556
SWIDTH 1090 0
DWIDTH 12 0
BBX 9 6 2 -2
BITMAP
AA80
8000
8A80
8800
8800
8800
ENDCHAR
STARTCHAR U+2555
ENCODING 9557
SWIDTH 1090 0
DWIDTH 12 0
BBX 5 6 0 -2
BITMAP
A8
08
A8
08
08
08
ENDCHAR
STARTCHAR U+2556
ENCODING 9558
SWIDTH 1090 0
DWIDTH 12 0
BBX 7 5 0 -2
BITMAP
AA
22
22
22
22
ENDCHAR
STARTCHAR U+2557
ENCODING 9559
SWIDTH 1090 0
DWIDTH 12 0
BBX 7 6 0 -2
BITMAP
AA
02
A2
22
22
22
ENDCHAR
STARTCHAR U+2558
ENCODING 9560
SWIDTH 1090 0
DWIDTH 12 0
BBX 7 6 4 1
BITMAP
80
80
80
AA
80
AA
ENDCHAR
STARTCHAR U+2559
ENCODING 9561
SWIDTH 1090 0
DWIDTH 12 0
BBX 9 4 2 2
BITMAP
8800
8800
8800
AA80
ENDCHAR
STARTCHAR U+255A
ENCODING 9562
SWIDTH 1090 0
DWIDTH 12 0
BBX 9 6 2 1
BITMAP
8800
8800
8800
8A80
8000
AA80
ENDCHAR
STARTCHAR U+255B
ENCODING 9563
SWIDTH 1090 0
DWIDTH 12 0
BBX 5 6 0 1
BITMAP
08
08
08
A8
08
A8
ENDCHAR
STARTCHAR U+255C
ENCODING 9564
SWIDTH 1090 0
DWIDTH 12 0
BBX 7 5 0 2
BITMAP
22
22
22
22
AA
ENDCHAR
STARTCHAR U+255D
ENCODING 9565
SWIDTH 1090 0
DWIDTH 12 0
BBX 7 6 0 1
BITMAP
22
22
22
A2
02
AA
ENDCHAR
STARTCHAR U+255E
ENCODING 9566
SWIDTH 1090 0
DWIDTH 12 0
BBX 7 9 4 -2
BITMAP
80
80
80
AA
80
AA
80
80
80
ENDCHAR
STARTCHAR U+255F
ENCODING 9567
SWIDTH 1090 0
DWIDTH 12 0
BBX 9 9 2 -2
BITMAP
8800
8800
8800
8800
8A80
8800
8800
8800
8800
ENDCHAR
STARTCHAR U+2560
ENCODING 9568
SWIDTH 1090 0
DWIDTH 12 0
BBX 9 9 2 -2
BITMAP
8800
8800
8800
8A80
8000
8A80
8800
8800
8800
ENDCHAR
STARTCHAR U+2561
ENCODING 9569
SWIDTH 1090 0
DWIDTH 12 0
BBX 5 9 0 -2
BITMAP
08
08
08
A8
08
A8
08
08
08
ENDCHAR
STARTCHAR U+2562
ENCODING 9570
SWIDTH 1090 0
DWIDTH 12 0
BBX 7 9 0 -2
BITMAP
22
22
22
22
A2
22
22
22
22
ENDCHAR
STARTCHAR U+2563
ENCODING 9571
SWIDTH 1090 0
DWIDTH 12 0
BBX 7 9 0 -2
BITMAP
22
22
22
A2
02
A2
22
22
22
ENDCHAR
STARTCHAR U+2564
ENCODING 9572
SWIDTH 1090 0
DWIDTH 12 0
BBX 11 6 0 -2
BITMAP
AAA0
0000
AAA0
0800
0800
0800
ENDCHAR
STARTCHAR U+2565
ENCODING 9573
SWIDTH 1090 0
DWIDTH 12 0
BBX 11 5 0 -2
BITMAP
AAA0
2200
2200
2200
2200
ENDCHAR
STARTCHAR U+2566
ENCODING 9574
SWIDTH 1090 0
DWIDTH 12 0
BBX 11 6 0 -2
BITMAP
AAA0
0000
A2A0
2200
2200
2200
ENDCHAR
STARTCHAR U+2567
ENCODING 9575
SWIDTH 1090 0
DWIDTH 12 0
BBX 11 6 0 1
BITMAP
0800
0800
0800
AAA0
0000
AAA0
ENDCHAR
STARTCHAR U+2568
ENCODING 9576
SWIDTH 1090 0
DWIDTH 12 0
BBX 11 5 0 2
BITMAP
2200
2200
2200
2200
AAA0
ENDCHAR
STARTCHAR U+2569
ENCODING 9577
SWIDTH 1090 0
DWIDTH 12 0
BBX 11 6 0 1
BITMAP
2200
2200
2200
A2A0
0000
AAA0
ENDCHAR
STARTCHAR U+256A
ENCODING 9578
SWIDTH 1090 0
DWIDTH 12 0
BBX 11 9 0 -2
BITMAP
0800
0800
0800
AAA0
0800
AAA0
0800
0800
0800
ENDCHAR
STARTCHAR U+256B
ENCODING 9579
SWIDTH 1090 0
DWIDTH 12 0
BBX 11 9 0 -2
BITMAP
2200
2200
2200
2200
AAA0
2200
2200
2200
2200
ENDCHAR
STARTCHAR U+256C
ENCODING 9580
SWIDTH 1090 0
DWIDTH 12 0
BBX 11 9 0 -2
BITMAP
2200
2200
2200
A2A0
0000
A2A0
2200
2200
2200
ENDCHAR
STARTCHAR U+2571
ENCODING 9585
SWIDTH 1090 0
DWIDTH 12 0
BBX 11 6 0 0
BITMAP
8000
2000
0800
0200
0080
0020
ENDCHAR
STARTCHAR U+2572
ENCODING 9586
SWIDTH 1090 0
DWIDTH 12 0
BBX 11 6 0 0
BITMAP
0020
0080
0200
0800
2000
8000
ENDCHAR
STARTCHAR U+2580
ENCODING 9600
SWIDTH 1090 0
DWIDTH 12 0
BBX 11 4 0 3
BITMAP
AAA0
AAA0
AAA0
AAA0
ENDCHAR
STARTCHAR U+2584
ENCODING 9604
SWIDTH 1090 0
DWIDTH 12 0
BBX 11 5 0 -2
BITMAP
AAA0
AAA0
AAA0
AAA0
AAA0
ENDCHAR
STARTCHAR U+2588
ENCODING 9608
SWIDTH 1090 0
DWIDTH 12 0
BBX 11 9 0 -2
BITMAP
AAA0
AAA0
AAA0
AAA0
AAA0
AAA0
AAA0
AAA0
AAA0
ENDCHAR
STARTCHAR U+258C
ENCODING 9612
SWIDTH 1090 0
DWIDTH 12 0
BBX 5 9 0 -2
BITMAP
A8
A8
A8
A8
A8
A8
A8
A8
A8
ENDCHAR
STARTCHAR U+2590
ENCODING 9616
SWIDTH 1090 0
DWIDTH 12 0
BBX 5 9 6 -2
BITMAP
A8
A8
A8
A8
A8
A8
A8
A8
A8
ENDCHAR
STARTCHAR U+2591
ENCODING 9617
SWIDTH 1090 0
DWIDTH 12 0
BBX 11 9 0 -2
BITMAP
8200
0820
2080
8200
0820
2080
8200
0820
2080
ENDCHAR
STARTCHAR U+2592
ENCODING 9618
SWIDTH 1090 0
DWIDTH 12 0
BBX 11 9 0 -2
BITMAP
8880
2220
8880
2220
8880
2220
8880
2220
8880
ENDCHAR
STARTCHAR U+2593
ENCODING 9619
SWIDTH 1090 0
DWIDTH 12 0
BBX 10 9 0 -2
BITMAP
9240
9240
9240
9240
9240
9240
9240
9240
9240
ENDCHAR
STARTCHAR U+25A0
ENCODING 9632
SWIDTH 1090 0
DWIDTH 12 0
BBX 9 4 0 0
BITMAP
AA80
AA80
AA80
AA80
ENDCHAR
STARTCHAR U+25AC
ENCODING 9644
SWIDTH 1090 0
DWIDTH 12 0
BBX 9 2 0 0
BITMAP
AA80
AA80
ENDCHAR
STARTCHAR U+25B2
ENCODING 9650
SWIDTH 1090 0
DWIDTH 12 0
BBX 9 5 0 1
BITMAP
0800
1400
2A00
5500
AA80
ENDCHAR
STARTCHAR U+25BA
ENCODING 9658
SWIDTH 1090 0
DWIDTH 12 0
BBX 7 7 1 0
BITMAP
80
A0
A8
AA
A8
A0
80
ENDCHAR
STARTCHAR U+25BC
ENCODING 9660
SWIDTH 1090 0
DWIDTH 12 0
BBX 9 5 0 1
BITMAP
AA80
5500
2A00
1400
0800
ENDCHAR
STARTCHAR U+25C4
ENCODING 9668
SWIDTH 1090 0
DWIDTH 12 0
BBX 7 7 1 0
BITMAP
02
0A
2A
AA
2A
0A
02
ENDCHAR
STARTCHAR U+25CB
ENCODING 9675
SWIDTH 1090 0
DWIDTH 12 0
BBX 7 4 2 1
BITMAP
28
82
82
28
ENDCHAR
STARTCHAR U+25CF
ENCODING 9679
SWIDTH 1090 0
DWIDTH 12 0
BBX 7 4 1 1
BITMAP
28
AA
AA
28
ENDCHAR
STARTCHAR U+25D8
ENCODING 9688
SWIDTH 1090 0
DWIDTH 12 0
BBX 11 9 0 -2
BITMAP
AAA0
AAA0
AAA0
A0A0
A0A0
AAA0
AAA0
AAA0
AAA0
ENDCHAR
STARTCHAR U+25D9
ENCODING 9689
SWIDTH 1090 0
DWIDTH 12 0
BBX 11 9 0 -2
BITMAP
AAA0
AAA0
A0A0
8A20
8A20
A0A0
AAA0
AAA0
AAA0
ENDCHAR
STARTCHAR U+263A
ENCODING 9786
SWIDTH 1090 0
DWIDTH 12 0
BBX 9 8 0 -1
BITMAP
2A00
4100
9480
8080
A280
9480
4100
2A00
ENDCHAR
STARTCHAR U+263B
ENCODING 9787
SWIDTH 1090 0
DWIDTH 12 0
BBX 9 8 0 -1
BITMAP
2A00
5500
8880
AA80
8880
A280
5500
2A00
ENDCHAR
STARTCHAR U+263C
ENCODING 9788
SWIDTH 1000 0
DWIDTH 11 0
BBX 9 7 0 0
BITMAP
0800
4900
1400
A280
1400
4900
0800
ENDCHAR
STARTCHAR U+2640
ENCODING 9792
SWIDTH 1090 0
DWIDTH 12 0
BBX 7 7 1 0
BITMAP
28
82
82
28
10
54
10
ENDCHAR
STARTCHAR U+2642
ENCODING 9794
SWIDTH 1090 0
DWIDTH 12 0
BBX 9 7 1 0
BITMAP
0A80
0280
0480
2800
8200
8200
2800
ENDCHAR
STARTCHAR U+2660
ENCODING 9824
SWIDTH 1090 0
DWIDTH 12 0
BBX 9 7 0 0
BITMAP
0800
1400
2A00
5500
A280
0800
1400
ENDCHAR
STARTCHAR U+2663
ENCODING 9827
SWIDTH 1090 0
DWIDTH 12 0
BBX 9 8 0 -1
BITMAP
1400
2A00
1400
4900
AA80
4900
0800
1400
ENDCHAR
STARTCHAR U+2665
ENCODING 9829
SWIDTH 1090 0
DWIDTH 12 0
BBX 9 7 0 0
BITMAP
4100
A280
AA80
AA80
5500
2A00
0800
ENDCHAR
STARTCHAR U+2666
ENCODING 9830
SWIDTH 1090 0
DWIDTH 12 0
BBX 7 7 1 0
BITMAP
10
28
54
AA
54
28
10
ENDCHAR
STARTCHAR U+266A
ENCODING 9834
SWIDTH 1090 0
DWIDTH 12 0
BBX 7 6 2 0
BITMAP
28
22
20
20
A0
A0
ENDCHAR
STARTCHAR U+266B
ENCODING 9835
SWIDTH 1090 0
DWIDTH 12 0
BBX 9 7 0 0
BITMAP
0780
3880
2080
2080
2280
A280
A000
ENDCHAR
ENDFONT
